<svg width="1131" height="465" viewBox="0 0 1131 465" fill="none" xmlns="http://www.w3.org/2000/svg">
<path fill-rule="evenodd" clip-rule="evenodd" d="M1052.88 217.179C1053.73 214.436 1051.76 211.431 1050.64 208.772C1049.31 205.706 1049.31 202.01 1047.54 199.08C1047.22 195.133 1044 190.157 1042.82 186.246C1050.23 187.322 1057.69 186.817 1065.08 188.331C1064.84 189.199 1066.04 189.079 1065.51 188.806C1065.45 188.568 1065.18 188.685 1065.31 188.424C1067.11 188.359 1068.99 187.514 1070.66 188.974C1070.72 187.49 1072.52 188.513 1072.88 187.488C1072.45 185.771 1071.11 186.028 1070.3 185.593C1069.2 184.168 1068.05 184.329 1066.95 182.853C1066.94 182.348 1067.48 182.039 1067.04 181.337L1067.04 181.337C1064.52 180.652 1062 179.347 1059.62 177.477C1059.56 177.001 1059.38 176.54 1059.12 176.185C1058.28 175.457 1057.36 175.091 1056.49 175.139C1056.01 174.901 1056.42 174.876 1056.31 174.447C1052.22 173.333 1048.29 168.837 1044.23 167.311C1043.41 166.543 1042.52 165.989 1041.62 165.679C1040.37 164.602 1039.04 163.769 1037.69 163.208C1033.65 160.261 1029.74 157.861 1025.61 154.603L1025.61 154.603C1023.91 154.886 1022.07 154.131 1020.48 152.505C1019.74 154.791 1021.72 158.301 1023.07 160.902L1023.08 160.902C1025.03 164.452 1026.79 168.198 1028.32 172.088C1026.5 171.146 1024.65 170.424 1022.81 169.932C1014.35 165.052 1005.78 160.957 997.167 157.671C996.565 158.453 995.579 157.153 995.308 158.132C995.518 159.447 996.621 159.553 997.195 160.729C996.501 160.673 995.767 160.12 995.582 161.381C997.068 162.885 998.626 164.195 1000.23 165.295C1009.42 175.789 1019.02 185.39 1028.95 194.011C1029.24 194.446 1029.53 194.577 1029.78 195.274C1032.93 197.759 1035.74 201.671 1038.83 204.63C1040.44 206.158 1042.26 207.682 1043.86 209.283C1045.47 210.886 1047.19 212.182 1048.81 213.729C1050.11 214.953 1051.28 217.144 1052.88 217.179L1052.88 217.179ZM1024.05 160.207C1023.49 159.029 1023.27 157.689 1022.88 156.749C1023.27 157.689 1023.47 159.135 1024.05 160.23L1024.05 160.207ZM1022.62 156.232L1022.66 156.424L1022.62 156.232ZM1024.13 157.656C1024.79 158.986 1024.75 160.642 1025.79 161.549C1024.77 160.636 1024.81 158.983 1024.16 157.648L1024.13 157.656ZM1025.33 159.36L1025.33 159.358C1025.28 159.891 1025.35 160.464 1025.52 161.007C1025.37 160.486 1025.33 159.945 1025.39 159.447L1025.33 159.36ZM1026.69 164.187C1026.94 164.733 1027.16 165.262 1027.38 165.815C1027.16 165.262 1026.92 164.713 1026.67 164.168L1026.69 164.187ZM1028.25 166.79L1028.25 166.788C1028.97 168.273 1029.65 169.796 1030.27 171.352C1029.65 169.823 1028.97 168.325 1028.25 166.864L1028.25 166.79ZM1029.64 170.726L1029.64 170.724C1029.89 171.1 1030.16 171.441 1030.45 171.737C1030.16 171.464 1029.89 171.149 1029.64 170.799L1029.64 170.726ZM1027.87 174.024C1027.66 173.999 1027.48 174.119 1027.38 174.347L1026.52 173.877L1027.37 174.351C1027.47 174.114 1027.66 173.991 1027.87 174.024ZM1024.62 172.042C1024.66 172.037 1024.69 172.03 1024.72 172.019C1024.69 172.032 1024.67 172.038 1024.64 172.038L1024.62 172.042ZM1024.81 171.995C1024.78 172.006 1024.75 172.014 1024.72 172.019L1024.81 171.995ZM1025.03 171.941L1025.12 171.918L1025.1 172.177L1025.03 171.941ZM1017.15 168.83L1016.73 168.629L1016.7 168.486L1016.73 168.605L1017.15 168.83ZM1017.28 168.493C1017.39 168.585 1017.51 168.642 1017.63 168.658C1017.54 168.696 1017.43 168.706 1017.32 168.685L1017.28 168.493ZM1005.22 163.327C1005.16 163.349 1005.09 163.364 1005.03 163.373C1005.09 163.364 1005.16 163.349 1005.22 163.327ZM1000.94 161.853L1000.94 161.854C1000.91 161.857 1000.89 161.863 1000.86 161.873C1000.8 161.776 1000.73 161.691 1000.65 161.621C1000.78 161.71 1000.89 161.837 1000.99 161.993L1000.94 161.853ZM999.738 161.215L999.737 161.215C999.799 161.399 999.897 161.561 1000.02 161.678C999.897 161.561 999.799 161.399 999.737 161.215L999.738 161.215ZM1004.84 163.598C1004.79 163.622 1004.74 163.635 1004.68 163.637C1004.75 163.691 1004.82 163.724 1004.89 163.737L1004.84 163.598ZM1005.14 164.207C1005.32 164.378 1005.54 164.41 1005.71 164.294C1005.54 164.41 1005.32 164.378 1005.14 164.207ZM1021.46 170.723C1021.24 170.703 1021.03 170.755 1020.85 170.874C1021.03 170.758 1021.23 170.707 1021.45 170.727L1021.46 170.723ZM1025.78 172.767C1025.97 172.872 1026.16 173.028 1026.35 173.108C1026.13 173.013 1025.94 172.881 1025.75 172.777L1025.78 172.767ZM1026.98 173.382C1027.31 173.527 1027.65 173.696 1028 173.814C1027.64 173.701 1027.35 173.521 1026.95 173.392L1026.98 173.382ZM1002.74 166.395C1001.58 165.188 1000.45 163.216 999.222 163.09C1000.4 163.101 1001.56 165.169 1002.74 166.395ZM998.902 163.067C1000.35 164.099 1001.82 166.749 1003.13 166.73C1001.83 166.774 1000.35 164.078 998.902 163.068L998.902 163.067ZM1016.37 180.568C1016.07 180.162 1015.79 179.825 1015.5 179.467C1015.8 179.823 1016.11 180.177 1016.39 180.589L1016.37 180.568ZM1011.51 175.544C1012.23 176.499 1013 177.368 1013.81 178.139C1013 177.36 1012.23 176.483 1011.51 175.519L1011.51 175.544ZM1039.7 202.899C1032.52 194.656 1025.08 186.977 1017.42 179.904C1012.52 173.52 1007.35 170.471 1002.4 164.456C1003.62 164.685 1004.85 165.239 1006.02 166.091C1009.76 167.821 1013.9 169.202 1017.78 170.776C1019.75 171.653 1021.8 172.767 1023.89 173.819C1026.48 175.126 1029.32 177.412 1032.11 177.81C1033.29 172.149 1027.2 164.694 1026.27 158.745C1030.12 160.866 1033.93 163.252 1037.68 165.897C1043.94 169.373 1050.11 173.464 1056.13 178.14C1059.57 179.822 1062.87 183.586 1066.32 184.986C1066.41 185.698 1064.26 185.017 1062.98 184.901C1059.42 184.569 1056.33 184.016 1052.84 183.566C1052.52 183.643 1052.2 183.875 1051.91 183.794C1051.26 183.703 1050.06 183.013 1049.71 182.922C1047.75 182.834 1045.78 182.529 1043.79 182.006C1042.13 181.405 1040.67 180.45 1039.19 179.881C1038.65 180.748 1039.81 182.411 1040.33 183.774C1040.85 185.14 1041.09 186.424 1041.49 187.362L1041.49 187.364C1042.25 188.835 1042.97 190.347 1043.64 191.895C1044.75 195.189 1044.95 198.66 1046.14 201.403C1048.36 205.665 1048.74 209.216 1050.55 213.326L1050.55 213.326C1046.74 210.425 1043.09 206.923 1039.7 202.898L1039.7 202.899Z" fill="#F5F5F5"/>
<path fill-rule="evenodd" clip-rule="evenodd" d="M998.797 47.5482L998.656 47.583C998.656 47.583 998.727 47.8698 998.836 47.8428C998.945 47.8157 998.944 47.74 998.797 47.5482Z" fill="#F5F5F5"/>
<path fill-rule="evenodd" clip-rule="evenodd" d="M981.199 98.096C981.506 97.6649 981.185 96.6318 981.849 96.5679C982.679 93.5644 983.692 90.7133 984.879 88.0443C984.837 88.8141 984.427 89.3712 984.513 90.1854C984.971 90.224 984.901 89.2028 985.167 88.8082C985.226 89.0462 985.324 88.9726 985.422 89.1001C985.725 88.7584 985.927 88.2667 986.002 87.6901C985.799 87.7403 985.777 88.2527 985.522 88.1639C985.709 87.9144 985.755 87.2955 985.915 86.8003C986.074 86.305 986.832 84.344 987.046 84.6707C986.928 84.1931 986.94 84.2414 987.084 83.9532C987.227 83.665 987.131 84.1446 987.23 84.1447C988.297 79.9239 989.793 76.0526 991.676 72.6363C991.748 72.3906 991.448 72.5164 991.6 72.3268C991.752 72.1372 991.679 71.9787 991.802 72.2766C991.926 72.5745 991.843 72.443 991.843 72.443L991.845 72.4427C991.816 72.3933 991.801 72.3334 991.803 72.2763C991.912 72.2493 992.002 72.0752 992.053 72.2145C992.215 73.6899 992.476 75.169 992.832 76.6297C992.706 76.6608 992.903 76.916 992.753 76.9779C993.287 78.6683 993.234 80.1247 993.7 81.8071C994.108 81.985 994.362 82.6059 994.549 83.2941L994.831 83.2245L994.83 83.2248C995.004 84.0913 995.27 84.9421 995.619 85.7388C995.964 85.5261 995.555 84.9439 996.031 84.9284C995.948 84.5939 995.848 84.1895 995.936 83.94C996.582 83.4002 996.52 81.7446 996.908 81.1664C996.961 81.381 997.058 81.3058 997.121 81.4931L997.12 81.4917C997.807 79.0237 998.602 76.6453 999.502 74.3701C999.538 74.5431 999.632 74.693 999.749 74.7646C1000.71 72.4244 1001.49 69.2696 1002.55 66.9059C1002.62 67.1922 1002.47 67.2037 1002.69 67.4784C1003.03 67.3934 1002.91 66.9678 1002.98 66.67C1003.44 65.8231 1003.42 64.7399 1003.96 63.8964L1003.87 63.5386C1004.24 63.4458 1004.16 62.353 1004.59 61.9158L1004.46 61.3915C1004.58 61.402 1004.68 61.3311 1004.73 61.1983C1004.69 61.0031 1004.68 60.8058 1004.7 60.6218C1004.78 60.6024 1004.77 60.8848 1004.94 60.5638C1004.91 59.7613 1005.35 59.7533 1005.34 59.1498C1005.37 59.2929 1005.3 59.411 1005.45 59.6025C1005.59 59.7939 1005.87 58.8907 1005.81 58.7031C1006 58.4033 1006.03 58.4187 1006.05 57.935L1006.08 58.0548C1006.11 57.5386 1006.42 57.1089 1006.46 56.5926C1006.84 56.1941 1006.59 55.5212 1007.06 55.1518C1007.02 54.9604 1007 54.8888 1007.07 54.7707C1007.67 53.3819 1008.15 51.9701 1008.72 50.5368C1008.94 50.4826 1008.91 50.2641 1009.1 50.1657C1009.04 49.951 1009.13 49.9045 1009.14 49.7497C1010.13 48.5697 1010.56 47.0942 1011.42 46.0958C1011.63 47.8584 1011.92 49.6211 1012.3 51.3738L1012.39 51.7549C1012.24 51.6155 1012.14 51.9947 1012.32 52.0006C1012.5 52.0062 1012.55 52.3757 1012.45 52.5249C1013.38 56.6754 1014.04 61.2219 1015.1 65.6184L1015.1 65.62C1015.12 66.2682 1015.23 66.9285 1015.41 67.5675C1015.62 67.7092 1015.82 67.8902 1015.99 68.1071C1016.21 67.8974 1016.46 67.773 1016.73 67.7454C1017.92 66.4673 1019.05 65.0729 1020.1 63.5712C1020.68 62.6647 1021.4 61.9471 1022.21 61.4532C1022 61.5035 1021.98 61.7896 1022.06 62.0471C1022.86 61.4702 1023.53 60.6221 1024.03 59.5596C1023.83 59.9117 1023.6 59.6641 1023.43 59.7067L1023.43 59.7065C1023.86 59.0277 1024.33 58.4134 1024.83 57.8653C1024.9 58.1282 1025.02 58.2985 1024.83 58.374C1024.63 58.4475 1024.83 58.374 1024.78 58.1826C1024.58 58.5867 1024.39 58.7592 1024.13 59.3567C1024.28 59.263 1024.43 59.1499 1024.57 59.0181C1024.8 58.7338 1025.3 57.7243 1025.44 57.6894C1025.58 57.6546 1025.44 57.6894 1025.54 57.5115L1025.54 57.5132C1025.63 57.5583 1025.72 57.5362 1025.78 57.4549C1026.65 55.7701 1027.92 55.1781 1028.58 53.6462C1029.3 53.1394 1029.93 52.3771 1030.81 51.6519C1030.91 51.474 1030.76 51.4605 1030.82 51.2942L1030.82 51.2925C1030.91 51.2796 1031.01 51.2561 1031.1 51.2229C1031.35 50.9146 1031.61 50.6291 1031.88 50.3717C1032.04 50.2054 1032.56 50.0024 1032.44 49.7527L1032.44 49.751C1032.14 50.0723 1031.8 50.303 1031.42 50.4357C1032.02 49.4096 1032.73 48.5363 1033.53 47.8361C1033.56 47.9792 1033.7 47.9444 1033.79 48.0239C1033.88 48.1033 1033.74 48.4918 1033.38 48.7319C1033.75 48.7937 1034.14 48.2405 1034.56 47.5287C1034.75 47.8633 1034.57 47.223 1034.8 47.4707C1034.91 47.19 1034.55 46.9251 1034.73 46.728C1034.79 46.966 1034.76 46.8712 1034.92 47.1613C1035.29 46.8654 1035.53 46.7321 1035.48 46.1613L1035.56 46.4709C1035.93 46.0997 1035.94 45.7436 1036.28 45.7089C1036.29 45.2003 1036.78 45.1807 1037 44.8714C1037.23 44.5638 1037.11 44.4401 1037.23 44.3088L1037.23 44.3116C1038.83 42.6085 1040.52 41.0735 1042.3 39.7141C1042.83 39.0493 1043.42 38.4704 1044.06 37.9865C1044.77 37.5823 1045.53 36.611 1046.16 36.3769L1046.16 36.3772C1046.22 36.5263 1046.33 36.6366 1046.44 36.6706C1046.55 36.7031 1046.65 36.6562 1046.72 36.5433C1046.67 36.3519 1046.54 36.232 1046.46 35.9745L1046.46 35.9731C1046.68 35.5899 1046.98 35.3165 1047.33 35.1778C1047.11 34.851 1047.49 34.5551 1047.32 34.4951C1047.16 34.4351 1046.57 35.4158 1046.22 35.3502C1046.35 35.3191 1046.29 35.1045 1046.25 34.938L1046.25 34.9364C1046.11 34.9606 1045.96 34.9968 1045.82 35.0446C1045.19 34.1123 1044.12 32.9329 1043.91 32.1745L1043.94 32.2943L1043.94 32.2927C1043.84 31.9727 1043.61 31.7464 1043.39 31.7455C1042.75 30.5509 1041.98 29.5039 1041.12 28.6626C1040.02 27.4404 1038.88 26.3054 1037.87 25.1874L1037.87 25.1876C1037.71 25.137 1037.55 25.0565 1037.4 24.9497C1036.26 23.5324 1034.87 23.0432 1033.85 21.4222C1033.56 21.3176 1033.14 20.8904 1033.09 20.548C1033.04 20.2057 1032.93 20.5866 1032.81 20.6177C1032.04 19.7435 1031.22 19.1616 1030.41 18.2991C1030.51 17.9181 1030.75 17.6587 1030.53 17.129C1030.22 17.474 1029.87 17.7709 1029.51 18.015C1029.44 17.752 1029.4 17.5856 1029.28 17.6399C1029.16 17.6943 1029.5 17.9667 1029.6 18.3207C1028.26 21.4639 1025.97 24.2838 1024.44 27.6009C1023.76 28.5022 1023.59 29.3535 1022.92 30.2314C1021.44 33.1287 1019.78 36.7825 1018.41 40.0319L1018.41 40.0336C1017.75 37.8997 1017.18 35.7306 1016.7 33.543C1017.32 35.0881 1017.53 35.7438 1018.12 37.2951L1018.38 37.1018L1018.38 37.1035C1018.14 36.1537 1017.84 35.2188 1017.49 34.3107L1017.54 34.5021C1016.99 32.9611 1016.55 31.3764 1016.2 29.7698C1015.89 28.5299 1014.95 27.5457 1014.87 26.3505C1014.3 25.2269 1014.44 23.9254 1013.91 22.9426C1013.73 22.608 1013.43 22.4784 1013.28 22.2116C1012.74 21.1558 1012.69 19.8251 1012.25 18.7711L1011.81 18.4733C1011.7 18.5003 1011.73 18.6201 1011.66 18.6862C1011.6 18.7539 1011.37 18.6322 1011.26 18.3069C1011.33 18.0704 1011.38 17.8006 1011.38 17.5179C1010.94 17.1177 1010.99 17.9685 1010.7 18.1408C1010.41 18.3131 1010.48 17.8661 1010.34 18.0269L1010.34 18.0283C1009.45 19.2086 1008.69 20.5884 1008.09 22.1309C1006.69 24.3767 1006.6 27.5638 1005.27 30.0456C1005.5 30.1656 1005.24 30.7128 1005.05 30.6083C1005.22 31.3006 1004.68 31.3838 1004.7 32.0626L1004.48 32.1169C1004.48 32.6489 1004.21 32.7145 1004.09 33.1498C1004.15 33.3878 1004.49 33.1768 1004.42 33.4729C1004.34 33.7707 1004.28 33.3801 1004.05 33.359C1003.31 36.1424 1002.42 38.8014 1001.38 41.3142C1001.48 41.6953 1001.33 41.8344 1001.11 42.0144C1001.27 42.6585 1000.61 42.9486 1000.83 43.755C1000.83 43.755 1000.76 43.4688 1000.67 43.5403C1000.59 43.6118 1000.37 44.1224 1000.41 44.4668C1000.06 44.5518 999.91 45.8807 999.459 46.0683C999.636 46.3796 999.518 46.3063 999.346 46.3489L999.346 46.3506C999.385 46.5494 999.368 46.7462 999.298 46.8942C999.159 46.8014 999.227 46.6079 999.043 46.6023L999.233 47.0356L999.234 47.0372C998.265 50.2639 997.173 53.3817 995.96 56.3811C995.918 56.2147 996.035 55.882 995.83 55.8569C995.492 57.2759 995.089 58.6439 994.622 59.9535C994.395 56.8216 994.312 53.7122 994.373 50.6467C994.167 49.2793 994.543 47.9197 994.013 46.5832C993.779 46.6412 993.859 46.9004 993.721 47.0106C993.632 46.6528 993.638 46.6761 993.418 46.4534C992.927 47.0819 992.943 48.4201 992.292 48.6062L992.291 48.6046C992.178 49.6113 991.791 50.4402 991.208 50.9236L991.149 50.6856C991.09 50.4476 991.135 51.0937 991.003 50.8985C990.871 50.7032 991.086 50.498 990.938 50.6355C990.789 50.773 990.584 51.4826 990.744 51.7979C990.591 52.3164 990.224 52.3066 990.17 53.0282C990.17 53.0282 990.123 52.8368 990.031 52.9354C989.94 53.0339 990.096 53.1983 989.947 53.1328C989.798 53.069 989.977 53.2527 990.1 53.3476C989.728 53.7188 989.949 54.1445 989.485 54.6145L989.573 54.9723C988.944 55.508 988.799 56.7344 988.414 57.7923L988.579 58.4597C988.62 58.6261 988.489 59.1655 988.226 59.3068L988.227 59.3101C987.47 62.6697 986.535 65.897 985.428 68.9671C985.617 69.731 984.965 70.2458 985.136 70.9381C984.934 70.9883 984.94 71.4176 984.915 71.6517C984.515 72.0776 984.348 72.8325 984.478 73.6323C984.43 73.4409 984.413 73.3693 984.257 73.4079C984.249 74.0423 983.727 74.8817 983.753 75.6594L983.753 75.6611C983.552 75.8451 983.461 76.1998 983.516 76.5801C983.297 76.8373 983.402 77.1911 983.177 77.4234L983.178 77.4251C983.11 78.4468 982.945 79.4238 982.687 80.3302C982.799 80.7829 982.609 81.0843 982.461 81.4249C982.455 82.5408 982.104 83.4633 982.06 84.5622L981.858 84.6124C981.504 86.3974 981.229 87.8326 980.908 89.6837L980.908 89.6853C980.497 91.2814 980.325 93.0444 980.401 94.8747C980.383 96.0698 979.855 97.2885 980.358 98.5822C980.318 98.8201 980.211 99.3271 980.547 99.3461C980.707 99.0522 980.524 98.3133 981.199 98.095L981.199 98.096ZM987.741 79.1818L987.606 79.0386C987.607 79.0367 987.73 79.1333 987.742 79.1816L987.741 79.1818ZM987.873 78.8454C987.874 78.8451 987.884 78.8161 987.874 78.8451L987.873 78.8454ZM986.979 81.1935L986.98 81.1933C987.026 81.1659 987.06 81.1132 987.075 81.0424C987.063 81.1179 987.031 81.1806 986.985 81.2166L986.979 81.1935ZM987.107 80.9091L987.066 80.7427L987.107 80.9091ZM987.836 79.5646L987.837 79.5627C987.836 79.4693 987.847 79.3816 987.871 79.3015C987.844 79.3788 987.833 79.4682 987.837 79.5627L987.836 79.5646ZM988.154 78.3714L988.154 78.3695C988.102 78.4547 988.06 78.55 988.026 78.6556C988.061 78.5517 988.104 78.4561 988.154 78.3695L988.154 78.3714ZM994.581 79.6161C994.581 79.6161 994.701 79.7631 994.652 79.9024L994.653 79.9004C994.67 79.7973 994.625 79.6759 994.552 79.6218L994.581 79.6161ZM993.809 80.1113L993.892 80.4458C993.916 80.5387 993.777 80.2446 993.778 80.1172L993.809 80.1113ZM994.881 81.2871C994.822 81.0491 994.903 80.7746 994.733 80.6913C994.936 80.6411 994.828 81.0724 994.887 81.3121L994.881 81.2871ZM1005.85 55.1987C1005.88 55.2028 1005.91 55.1947 1005.94 55.1755C1005.91 55.193 1005.88 55.2011 1005.85 55.1987ZM1007.19 52.8642L1007.1 53.0384L1007.19 52.8642ZM1007.04 52.9028L1007.04 52.9045C1007.03 52.779 1007.05 52.6619 1007.09 52.5625C1007.07 52.6347 1007.07 52.713 1007.08 52.7926L1007.04 52.9028ZM1006.48 54.0034L1006.45 53.8602C1006.41 53.7171 1006.45 53.8602 1006.45 53.8602L1006.49 54.0266L1006.48 54.0034ZM1005.77 55.3455C1005.73 55.3474 1005.68 55.3579 1005.64 55.3765L1005.7 55.6145L1005.64 55.3516C1005.69 55.3001 1005.75 55.2595 1005.81 55.2336L1005.77 55.3455ZM1008.14 50.5294C1007.86 50.599 1007.83 51.6705 1007.41 51.572C1007.43 51.7095 1007.42 51.8437 1007.38 51.957C1007.42 51.8423 1007.43 51.7081 1007.41 51.572C1007.84 51.6667 1007.85 50.4987 1008.16 50.5256L1008.14 50.5294ZM1023.44 60.2117C1023.54 60.0609 1023.74 59.9603 1023.8 59.769C1023.77 59.9275 1023.55 60.0321 1023.44 60.2101L1023.44 60.2117ZM1034.99 47.1962C1034.87 47.2272 1034.87 47.4302 1034.72 47.5154L1034.73 47.5152C1034.83 47.446 1034.92 47.3463 1034.98 47.2233L1034.94 47.0569C1034.94 47.0319 1034.97 47.0994 1035.02 47.2154L1034.99 47.1962ZM1035.12 46.9118C1035.06 46.6738 1035.35 46.5754 1035.43 46.405C1035.5 46.2349 1035.09 46.6643 1035.12 46.9118C1035.15 47.1576 1035.25 46.8807 1035.34 46.8575C1035.31 46.9911 1035.25 46.7531 1035.14 46.9061L1035.12 46.9118ZM1035.37 46.6237L1035.37 46.6217C1035.42 46.5625 1035.49 46.5442 1035.57 46.5713C1035.5 46.5498 1035.43 46.5662 1035.38 46.618L1035.37 46.6237ZM1043.32 31.8659L1043.32 31.8657C1042.91 31.6273 1042.53 31.2134 1042.25 30.686C1042.52 31.1953 1042.88 31.5951 1043.28 31.825L1043.32 31.8659ZM1041.94 31.7267L1041.91 31.6068L1042.04 31.7268L1041.94 31.7267ZM1041.76 31.6454L1041.55 31.4173L1041.76 31.6454ZM1041.67 31.3109L1041.67 31.3107C1041.67 31.3918 1041.69 31.48 1041.73 31.5487C1041.71 31.4679 1041.71 31.3821 1041.74 31.3186L1041.67 31.3109ZM1042.69 31.0594L1042.93 31.3786L1042.69 31.0594ZM1038.79 28.0485C1038.95 28.0099 1038.85 28.2632 1038.87 28.3581C1038.87 28.3581 1038.89 28.4529 1038.87 28.3581L1038.96 28.3349L1038.87 28.3581C1038.87 28.3581 1038.95 28.0099 1038.79 28.0236L1038.79 28.0485ZM1038.79 28.0485L1038.79 28.0483C1038.82 28.1174 1038.84 28.1906 1038.85 28.2629L1038.79 28.0485ZM1018.71 41.3785L1018.71 41.3782C1018.65 41.1286 1018.67 40.8754 1018.78 40.7032C1018.7 40.8802 1018.68 41.1152 1018.74 41.3471L1018.71 41.3785ZM1019.44 39.628C1019.22 40.0865 1019.01 40.5698 1018.83 41.0455C1019.07 40.5187 1019.34 40.0209 1019.64 39.5542L1019.44 39.628ZM1020.23 37.684L1020.09 37.9722L1020.24 37.655L1020.23 37.684ZM1017.72 40.1813L1017.72 40.181C1017.74 40.4584 1017.81 40.7363 1017.92 40.9915C1017.79 40.683 1017.71 40.3484 1017.68 40.0129L1017.72 40.1813ZM1016.2 34.0501C1015.72 32.7773 1015.71 31.3348 1015.3 30.4238L1015.3 30.4219C1015.25 30.3022 1015.19 30.1902 1015.12 30.0873L1015.32 30.4181C1015.74 31.2746 1015.68 32.7079 1016.24 34.0133L1016.2 34.0501ZM1015.47 29.2421L1015.47 29.2402C1015.53 29.6227 1015.66 29.9944 1015.85 30.3113C1015.65 30.1352 1015.53 29.4795 1015.46 29.17L1015.47 29.2421ZM1014.86 29.393L1014.86 29.3911C1014.91 29.5301 1014.97 29.6617 1015.04 29.7777C1014.97 29.6706 1014.9 29.5486 1014.85 29.4198L1014.35 27.3678C1014.65 28.0524 1014.72 28.7953 1014.87 29.416L1014.86 29.393ZM1013.89 26.3178L1013.89 26.3158C1013.97 26.8589 1014.1 27.3964 1014.28 27.9152C1014.09 27.3823 1013.96 26.8281 1013.87 26.2692L1013.89 26.3178ZM1014.04 25.0878L1014 24.9214L1014.04 25.0878ZM1013.42 23.1655L1013.38 23.0224L1013.42 23.1655ZM1007.34 24.468L1007.34 24.4674C1007.26 24.6888 1007.19 24.9165 1007.13 25.154C1007.22 24.9139 1007.33 24.685 1007.44 24.4692L1007.34 24.468ZM1006.97 25.7755L1006.97 25.7752C1007.62 24.541 1008.19 23.2062 1008.67 21.7848C1008.21 23.2399 1007.67 24.6172 1007.05 25.9068L1006.97 25.7755ZM1007.48 26.2551C1007.14 27.1255 1006.83 28.0382 1006.51 29.0287C1006.92 28.0669 1007.24 27.2024 1007.59 26.2799L1007.48 26.2551ZM1006.51 29.0287L1006.51 29.0282C1007.24 27.7703 1007.78 26.3003 1008.12 24.6802C1007.79 26.3557 1007.25 27.8767 1006.52 29.1791L1006.51 29.0287ZM1007.96 27.8353C1008.06 27.582 1008.19 27.3209 1008.31 27.0636C1008.19 27.3209 1008.06 27.582 1007.96 27.8353L1007.86 28.1875L1007.96 27.8353ZM1007.73 28.7269L1007.64 28.9765L1007.73 28.7269ZM1007.33 29.6613L1007.33 29.6607C1007.28 29.7634 1007.22 29.8561 1007.15 29.9334C1007.24 29.8692 1007.32 29.7894 1007.39 29.6974L1007.33 29.6613ZM1007.13 30.3944L1007.14 30.3936C1008.06 28.7025 1008.82 26.8156 1009.39 24.771L1009.47 24.7515L1009.47 24.7518C1008.9 26.886 1008.13 28.8592 1007.19 30.6335L1007.13 30.3944ZM1004.39 33.4543L1004.39 33.4535C1004.26 33.5191 1004.17 33.6595 1004.13 33.8483C1004.21 33.6907 1004.33 33.5882 1004.47 33.56L1004.39 33.4543ZM1004.19 33.8584C1004.19 33.8584 1004.13 34.1275 1004.15 34.224C1004.15 34.2215 1004.29 34.0358 1004.27 33.9642L1004.19 33.8584ZM1004.4 35.3012L1004.4 35.2987C1004.28 35.6261 1004.17 35.966 1004.07 36.3179C1004.17 35.9754 1004.27 35.6452 1004.39 35.3277L1004.4 35.3012ZM1003.74 35.8968L1003.81 35.8773C1003.82 35.8751 1003.83 35.999 1003.81 36.0028L1003.74 35.8968ZM1003.62 35.4441L1003.63 35.4419C1003.66 35.6041 1003.65 35.7647 1003.61 35.9023C1003.65 35.76 1003.66 35.5875 1003.62 35.4169L1003.62 35.4441ZM1003.59 36.1866L1003.63 36.3298L1003.59 36.1866ZM1004 36.2136L1004 36.2097C1003.76 36.7928 1003.56 37.4099 1003.39 38.0568C1003.59 37.4369 1003.81 36.8493 1004.07 36.293L1004 36.2136ZM1002.05 41.7587L1002.06 41.7549C1002.4 41.3946 1002.62 40.8274 1002.66 40.1631C1002.62 40.849 1002.4 41.4372 1002.04 41.811L1002.05 41.7587ZM994.439 60.7585C994.38 60.5717 994.333 60.3803 994.298 60.186C994.336 60.3795 994.384 60.5709 994.439 60.7585ZM995.398 61.2805C995.442 61.2819 995.485 61.2714 995.522 61.2498C995.501 61.3133 995.469 61.3638 995.428 61.4004L995.398 61.2805ZM995.581 60.6788L995.555 61.0403L995.554 61.0406C995.606 60.8706 995.621 60.6744 995.596 60.472L995.581 60.6788ZM995.401 61.1545L995.399 61.1548C995.394 60.9637 995.451 60.7993 995.555 60.7099C995.471 60.7061 995.465 60.8841 995.46 61.0638L995.401 61.1545ZM994.361 62.6519C994.478 62.3793 994.521 62.0401 994.486 61.6848C994.528 61.9977 994.505 62.3019 994.422 62.5609L994.361 62.6519ZM994.185 61.4043L994.207 60.6905L994.185 61.4043ZM994.161 59.2324C994.204 58.8702 994.165 58.472 994.045 58.0971C994.169 58.4444 994.228 58.8167 994.212 59.1705L994.161 59.2324ZM994.161 59.2324C994.081 58.9309 994.043 58.6205 994.052 58.3234C994.071 58.5905 994.121 58.8608 994.2 59.1222L994.161 59.2324ZM993.423 54.3778L993.422 54.3762C993.429 54.3286 993.415 54.2736 993.387 54.233C993.4 54.2085 993.42 54.1931 993.444 54.1941L993.423 54.3778ZM993.375 54.1864L993.281 54.2096C993.281 54.2096 993.297 54.0026 993.333 54.0183L993.375 54.1864ZM993.099 52.0011L993.028 51.7148L993.099 52.0011ZM993.235 51.6123C993.236 51.612 993.179 51.4496 993.201 51.4689L993.235 51.6123ZM993.161 49.9084L993.162 49.9081C993.233 50.4912 993.277 51.072 993.295 51.6487C993.279 51.0803 993.238 50.5076 993.168 49.9331C993.125 50.0923 993.095 50.2605 993.077 50.4363C993.071 50.1975 993.086 49.9641 993.121 49.7417L993.161 49.9084ZM993.048 51.6587C993.022 51.3046 993.025 50.956 993.056 50.6181C993.019 50.9009 993.003 51.1929 993.006 51.4923L993.048 51.6587ZM982.302 90.6319L982.146 90.6705C982.022 90.1695 982.406 89.8466 982.302 89.2896L982.504 89.2394C982.847 87.812 983.025 86.2491 983.483 84.8197C983.401 84.6511 983.353 84.4581 983.347 84.2705C983.953 83.8413 983.471 82.8974 983.876 82.3924C983.751 80.1449 984.793 77.9882 985.022 75.7022C985.116 75.679 985.248 75.8743 985.383 75.8161C985.978 73.466 986.228 70.9228 986.894 68.5285C986.859 68.3854 986.811 68.194 986.861 68.0564L986.86 68.0547C987.327 66.8176 987.64 65.4416 987.79 63.9757C988.024 63.9176 988.02 63.5637 988.049 63.2792C988.356 63.3798 988.58 62.0085 988.748 61.2832L988.932 60.5541C989.134 60.0148 989.361 59.5012 989.613 59.0165C989.561 58.8351 989.485 58.6651 989.39 58.5155C989.886 57.709 989.939 56.5813 990.577 55.9429C990.983 54.3358 991.501 52.8174 992.123 51.4073C992.212 51.7651 991.969 52.0533 992.111 52.4983C992.255 52.9432 992.299 52.6549 992.382 52.7864C992.817 55.2115 992.928 57.3353 993.527 59.8207L993.371 59.8593C993.455 61.1739 993.744 62.5064 994.219 63.7507C994.272 63.9653 994.147 63.9964 994.331 64.2033L994.332 64.205C994.592 63.4728 994.924 62.8114 995.319 62.2382C995.472 62.453 995.385 62.5011 995.353 62.7103C995.72 62.9231 995.882 62.0989 995.536 61.7782C995.662 61.7472 995.727 62.0101 995.88 61.6932C996.034 61.376 995.85 61.5734 995.803 61.3837L995.805 61.3831C996.847 57.2605 998.077 53.2853 999.49 49.4804C999.507 50.4882 998.713 51.6989 998.744 52.6273L998.744 52.629C998.406 53.6825 998.125 54.7837 997.902 55.9268C998.337 56.2749 998.364 55.1801 998.369 54.7991C998.374 54.4181 998.714 54.1821 998.607 53.7527C998.763 53.7141 998.842 53.6947 999.008 53.83C999.66 51.4396 1000.25 49.5226 1000.95 47.2207L1000.95 47.2191C1000.94 47.3575 1000.98 47.5072 1001.05 47.6251C1001.44 47.2911 1001.63 46.6465 1001.56 45.9288L1001.71 46.1203C1001.86 45.8031 1001.31 45.3601 1001.68 45.2672C1001.67 45.5729 1001.53 45.3058 1001.79 45.6966C1001.95 45.5303 1002.01 45.4393 1001.83 45.2806C1002.18 44.917 1002.42 43.4143 1002.67 42.5419C1002.74 42.5224 1002.91 42.48 1002.9 42.1548L1002.9 42.1534C1003.15 41.2572 1003.45 40.396 1003.79 39.579C1004.44 37.6699 1005.51 35.6836 1006.16 33.6236L1006.41 33.5618C1006.6 32.5791 1007.25 31.8093 1007.38 30.7882C1009.38 27.5579 1009.84 23.6454 1011.26 20.0029L1011.26 20.0032C1011.56 21.0106 1011.99 21.9564 1012.53 22.7784C1012.69 23.6601 1012.94 24.527 1013.25 25.3585C1013.85 28.7046 1015.23 32.4662 1016.11 35.9455C1017.2 38.2081 1017.2 40.3588 1018.12 42.409L1018.35 42.351C1018.46 42.324 1018.21 41.7552 1018.29 41.556C1018.56 41.8441 1018.81 42.5676 1019.08 42.9543L1019.29 42.9041C1018.93 41.4496 1019.73 40.6162 1020.11 39.5114C1020.26 39.4728 1020.4 39.235 1020.5 39.4148L1020.5 39.4165C1020.94 38.3996 1021.42 37.4332 1021.95 36.523C1022.12 35.8498 1022.61 35.3489 1022.58 34.5694C1023.19 34.0142 1022.97 33.2814 1023.64 32.8382C1024.42 30.6795 1025.36 28.6742 1026.44 26.854C1026.75 25.6245 1027.25 24.5643 1027.93 23.7497C1028.48 22.6453 1029.1 21.6052 1029.76 20.6374L1029.62 20.0649C1029.86 19.7627 1030.07 19.4057 1030.23 19.001C1030.28 19.1924 1030.36 18.97 1030.45 19.3278C1031.74 20.1979 1032.92 22.2093 1034.21 23.1838L1034.2 23.1824C1034.51 23.7083 1034.89 24.1317 1035.3 24.4046C1036.69 26.0098 1038.1 27.6109 1039.48 29.2952C1039.88 29.8096 1040.32 30.2466 1040.78 30.5929C1041.92 32.3122 1043.53 33.4571 1044.68 35.0215C1044.78 34.9983 1044.32 34.48 1044.65 34.5494C1044.21 33.8997 1043.69 33.8244 1043.25 33.1223C1043.2 32.9076 1043.45 33.0721 1043.29 32.8844C1043.99 33.1666 1044.62 34.2516 1045.27 35.1278C1045.09 35.1742 1044.98 34.8725 1044.8 34.8899C1044.62 34.9093 1045.01 35.269 1045.06 35.4587L1045.06 35.4606C1042.82 37.1771 1040.7 39.1563 1038.73 41.3832C1038.25 41.9074 1037.56 42.2807 1037.19 42.8028C1036.61 43.6809 1035.49 44.4914 1034.73 45.4625C1034.24 46.091 1033.68 46.5073 1033.11 47.2073C1031.14 49.5924 1029.05 52.6679 1026.8 54.8207C1026.7 54.4147 1027.03 54.5364 1026.96 54.1748C1028.17 52.9117 1029.27 51.0686 1030.66 49.5849L1030.6 49.3469C1029.83 49.1594 1029.62 50.7299 1028.9 50.6544C1028.82 51.0026 1028.48 51.1128 1028.29 51.4127C1028.1 51.7125 1028.35 51.6273 1028.26 51.7259C1028.16 51.8245 1028.12 51.6331 1028.13 51.7569C1027.86 52.1327 1027.62 52.5474 1027.41 52.9988C1027.22 53.2482 1026.99 53.3816 1026.81 53.6543C1026.63 53.9271 1026.69 54.039 1026.59 54.217C1026.48 54.3949 1025.84 54.5537 1025.99 55.0738C1025.54 54.9325 1025.38 55.6291 1025.16 55.8863C1024.94 56.1422 1024.89 55.7495 1024.72 55.7921C1024.46 55.9948 1024.23 56.2656 1024.04 56.5928C1023.94 56.9051 1023.81 57.1848 1023.65 57.4247C1022.97 58.2256 1022.25 59.1385 1021.68 59.9138C1021.57 59.9408 1021.55 59.9449 1021.49 59.7573C1021.26 59.909 1021.09 60.1726 1021 60.5118C1020.78 59.653 1022.06 59.4632 1021.88 58.4693C1021.25 58.8543 1020.96 60.4443 1020.53 60.2992C1020.3 60.6355 1020.23 61.3089 1019.89 60.9896C1018.64 62.6648 1017.95 63.6975 1016.55 65.2837C1016.68 65.7846 1016.92 65.4965 1017.04 65.2912C1017.15 65.0862 1017.18 65.384 1017.25 65.618C1016.8 65.9566 1016.49 67.173 1016.15 67.3857C1016.05 67.0046 1016.22 66.7357 1016.11 66.3819C1016.01 66.0279 1016.31 66.4865 1016.44 66.3007C1016.58 66.1149 1016.28 65.6566 1016.21 65.3471L1016.21 65.3454C1015.61 63.1308 1015.34 60.8502 1015.4 58.6578C1015.05 56.3817 1014.91 54.1078 1014.98 51.8979C1014.98 51.8979 1014.95 51.7781 1014.83 51.6832C1014.44 52.1337 1014.84 52.9461 1014.62 53.4567C1014.83 54.3154 1014.58 55.0119 1014.81 55.9439C1014.71 55.9671 1014.86 56.1586 1014.69 56.2245C1014.82 56.6991 1014.83 57.1913 1014.72 57.6093C1014.1 55.1047 1013.8 53.1533 1013.16 50.9811C1013.27 50.9542 1013.24 50.9617 1013.27 50.8032L1013.27 50.8035C1012.57 48.6082 1012.32 46.2909 1012.53 44.1483C1012.48 43.9569 1012.42 44.3783 1012.24 44.3727C1012.25 44.015 1012.16 44.0382 1012.07 44.4154C1011.7 44.1272 1011.75 43.5316 1011.75 43.1273C1011.97 43.073 1011.97 42.7676 1012.12 42.8314C1012 42.3538 1011.9 42.8857 1011.69 42.4312C1011.5 43.2126 1010.85 43.8548 1011.1 44.6033C1011.21 44.1197 1011.4 43.9979 1011.53 43.5859C1011.76 43.7058 1011.4 44.0212 1011.75 44.4929C1011.54 44.7501 1011.3 44.9701 1011.04 45.1521C1011.12 44.8272 1011.09 44.8115 1010.86 44.4131L1010.86 44.4115C1010.75 44.8998 1010.57 45.3312 1010.32 45.6842C1010.08 46.5042 1009.72 47.125 1009.44 47.8272C1009.17 48.5275 1008.55 48.9087 1008.67 49.3341L1008.67 49.3338C1008.61 49.3262 1008.55 49.287 1008.5 49.2255C1008.29 49.7414 1008.02 50.1931 1007.7 50.5621C1007.73 50.6819 1007.76 50.8001 1007.86 50.7265C1007.96 50.6512 1007.3 51.0921 1007.5 51.5736L1007.36 51.3821C1007.21 51.1906 1007.43 51.6683 1007.45 51.7399C1006.77 52.3628 1006.68 53.6527 1006.14 54.2928L1006.23 54.674C1005.86 54.3105 1005.9 55.1362 1005.67 55.3973L1005.66 55.3959C1005.75 55.5798 1005.85 55.7499 1005.96 55.9062C1005.56 55.8289 1005.92 56.2718 1005.62 56.2699C1005.32 56.2679 1005.83 56.0126 1005.62 55.6858C1005.41 55.3591 1005.51 56.1171 1005.35 56.1848C1005.18 56.2507 1005.65 56.3376 1005.56 56.5115C1005.47 56.6857 1005.4 56.3471 1005.31 56.2197C1005.13 56.452 1005.12 56.869 1005.29 57.2118C1005.11 57.2544 1005.19 56.8057 1005.04 56.8172C1004.96 57.647 1004.44 57.7497 1004.64 58.6892C1004.48 58.8555 1004.59 58.4746 1004.45 58.4573C1004.31 58.4401 1004.57 58.6043 1004.53 58.7918C1004.19 59.0045 1003.87 59.3121 1004.01 59.8846L1003.98 59.7647L1003.98 59.765C1003.68 60.2436 1003.5 60.8691 1003.46 61.5637C1003.18 61.6333 1003.45 62.1748 1003.13 62.026C1003.09 62.3392 1003.3 62.1343 1003.38 62.4205C1003.45 62.7067 1003.09 62.4901 1002.94 62.5287C1003.11 62.84 1002.75 62.7261 1003.03 63.2405C1002.94 63.2637 1002.97 62.9775 1002.82 62.9137C1002.67 62.8499 1002.88 63.1767 1002.94 63.4147C1002.57 62.9235 1002.9 63.6526 1002.63 63.4921C1002.65 63.6859 1002.7 63.8806 1002.77 64.0647C1002.69 64.0841 1002.65 64.0957 1002.55 63.8403C1002.43 64.225 1002.06 65.1515 1002.12 65.4418C1001.86 66.0627 1001.51 66.6564 1001.53 67.4108C1001.1 68.4283 1000.49 69.3895 1000.11 70.4474C1000.03 70.6931 1000.13 71.0236 999.832 71.1477C999.897 71.4106 999.788 71.4376 999.825 71.6563C999.564 71.954 999.411 72.4069 999.393 72.9272C998.059 76.2462 997.043 79.5109 995.956 82.8183C995.265 80.1916 994.685 77.5357 994.219 74.8674C994.014 74.7822 993.813 74.8321 993.672 75.0029C993.201 73.7014 993.081 72.6164 992.774 71.3766L992.618 71.4152C992.506 70.9625 993.047 70.802 992.858 70.2412C992.592 70.104 992.603 70.481 992.452 70.3419C992.302 70.2024 992.239 69.4831 992.277 69.1699C992.315 68.8566 992.105 69.2125 992.022 68.878C991.861 69.2976 992.039 69.6846 991.822 70.1429C991.059 71.9532 990.273 74.6031 989.404 76.516C989.298 76.694 989.257 76.3246 989.134 76.431C988.264 77.7732 987.527 79.2894 986.937 80.9511C986.937 80.9511 987.055 81.4287 987.192 81.2429C987.034 81.6105 987.004 82.0243 986.76 82.3124C986.697 81.7205 987.102 81.7475 986.996 81.1907C986.402 81.3378 986.499 82.7322 986.048 83.1228C985.923 83.1539 986.125 83.4324 986.172 83.6238C986.22 83.8152 986.143 83.504 986.025 83.4323C985.76 83.4982 986.144 83.9099 986.155 83.9566C986.167 84.0048 986.114 83.7901 985.941 83.6298C985.989 83.8212 986.012 83.916 985.787 83.947L985.978 84.3802C985.978 84.3802 985.931 84.1888 985.798 84.121C985.666 84.0531 985.69 84.351 985.832 84.5931C985.597 84.6511 985.461 84.8369 985.648 85.3222L985.647 85.3205C985.576 85.34 985.494 85.2719 985.46 85.1656C984.922 87.148 983.732 89.771 982.952 92.1171C981.981 92.8134 982.355 94.7978 981.569 95.1691C981.662 93.5284 981.894 91.9483 982.261 90.4657L982.302 90.6319Z" fill="#F5F5F5"/>
<path fill-rule="evenodd" clip-rule="evenodd" d="M986.162 87.5972C986.308 87.1814 986.544 86.7944 986.449 86.4116C986.52 86.6979 986.324 86.4427 986.293 86.4502L986.293 86.4522C986.308 86.8582 986.262 87.2492 986.162 87.5972Z" fill="#F5F5F5"/>
<path fill-rule="evenodd" clip-rule="evenodd" d="M1012.59 44.0326C1012.53 43.7946 1012.77 43.7079 1012.53 43.3887C1012.46 43.453 1012.43 43.5708 1012.44 43.7005C1012.45 43.8299 1012.51 43.9537 1012.59 44.0326L1012.59 44.0326Z" fill="#F5F5F5"/>
<path fill-rule="evenodd" clip-rule="evenodd" d="M1030.39 82.2412C1030.33 82.4596 1030.18 82.7247 1030.3 82.895C1030.47 82.6784 1030.87 83.363 1030.93 82.7403L1030.39 82.2412Z" fill="#F5F5F5"/>
<path fill-rule="evenodd" clip-rule="evenodd" d="M1052.26 148.029C1052.1 147.548 1051.82 147.146 1051.49 146.929C1051.61 146.726 1051.66 146.438 1051.62 146.135C1050.79 144.764 1050.14 143.191 1049.74 141.538C1046.83 139.372 1045.69 135.553 1044.33 133.079C1044.09 132.605 1043.74 132.388 1043.56 132.002C1043 130.648 1044.07 129.039 1044.29 127.517C1059.03 127.945 1073.8 128.616 1088.71 129.835L1089.07 128.86C1089.68 128.709 1090.57 129.552 1090.94 128.396C1090.81 128.253 1090.69 128.104 1090.83 127.918C1090.53 127.512 1090.04 128.112 1089.91 127.234C1090.47 127.905 1090.97 126.97 1090.93 126.348C1089.48 125.087 1088.76 126.886 1087.34 125.971C1086.51 125.493 1085.89 124.052 1085.11 122.979C1084.11 121.579 1082.88 120.67 1082.01 119.163C1084.44 121.093 1086.36 122.896 1088.78 125.083L1088.78 125.083C1090.69 125.557 1092.57 126.817 1094.19 128.707C1094.68 127.749 1093.82 127.227 1093.56 126.836C1092.35 125.288 1089.63 124.342 1087.38 122.391C1085.54 120.669 1083.74 118.825 1082 116.861C1078.05 113.41 1073.13 107.84 1068.83 103.843C1072.42 103.231 1076.21 103.382 1079.79 102.774C1080.09 102.851 1080.34 102.638 1080.7 103.054C1080.88 103.012 1080.99 102.656 1081.16 102.561C1083.87 103.031 1086.17 101.978 1088.83 102.308C1089.95 101.422 1091.5 102.329 1092.61 101.372L1092.61 101.37C1095.17 101.771 1097.65 101.372 1099.88 100.201C1097.91 99.4743 1096.42 100.755 1094.28 99.4345L1094.29 99.4359C1096.38 98.9633 1098.58 99.0165 1100.81 99.592C1100.56 99.9828 1100.1 99.5919 1099.88 100.178C1101.58 100.595 1103.24 100.315 1104.65 99.3749C1105.33 100.17 1105.99 100.007 1106 99.0421C1103.9 97.2823 1101.65 96.7758 1099.83 95.3546C1089.86 90.9595 1079.22 85.0869 1069.26 80.1367L1069.26 80.1348C1067.13 78.6784 1064.94 77.5458 1062.73 76.7627C1061.44 77.4587 1060.1 78.012 1058.72 78.4165C1058.81 78.0632 1058.7 77.6105 1058.45 77.3431C1055.9 77.5403 1053.44 78.2263 1051.14 79.3807C1049.21 79.6625 1047.32 80.1303 1045.49 80.7815C1041.38 81.0903 1037.45 82.2782 1033.81 84.307C1033.02 83.7656 1032.55 84.3903 1031.92 84.3943C1031.84 84.0848 1031.48 83.8433 1031.2 83.5839C1030.78 83.8664 1031.17 84.2261 1031.08 84.754C1030.47 84.9049 1029.62 84.8642 1029.49 86.0345C1029.64 86.6553 1030.1 86.491 1030.32 86.9686C1031.9 91.3375 1036.17 94.712 1039.64 98.4098L1039.64 98.4112C1036.91 99.2095 1034.1 99.6603 1031.23 99.7583C1029.92 99.9058 1028.58 99.9074 1027.22 99.7647C1025.32 100.347 1023.33 100.534 1021.29 100.322C1021.13 100.361 1021.1 100.848 1020.88 100.701C1015.95 100.861 1011.26 101.693 1006.35 101.767C1006.17 102.293 1006.32 102.283 1006.05 102.602C1004.27 102.874 1002.47 102.992 1000.65 102.953C999.979 103.878 998.447 102.713 998.275 104.427C998.839 105.098 999.058 104.512 999.552 104.895C999.275 105.318 999.73 105.61 999.818 105.968L999.817 105.968C1003.9 109.171 1007.78 113.073 1011.35 117.572C1009.27 117.781 1007.16 117.805 1005.03 117.642C1003.57 117.7 1001.58 118.041 999.622 117.97C999.465 117.805 999.647 117.532 999.474 117.374C998.71 118.171 997.571 117.593 996.636 117.697C996.294 118.262 996.854 118.579 996.57 119.105C994.619 118.929 992.842 119.521 990.904 119.394L990.662 120.086C985.479 120.99 980.172 121.393 974.871 121.819C974.664 120.984 973.865 121.436 973.919 122.055C975.02 123.022 975.635 122.289 976.74 123.003C976.131 123.356 975.256 122.635 974.854 123.825C976.557 125.277 978.783 124.219 980.622 126.22L980.621 126.22C980.634 126.076 980.704 125.972 980.802 125.948C980.9 125.923 981.01 125.983 981.09 126.104C981.522 126.58 981.573 126.313 981.853 126.776C982.494 126.288 983.946 127.193 984.497 127.412C984.203 127.965 983.429 126.714 983.129 127.244C984.849 128.298 986.628 128.889 988.37 128.985C991.779 130.091 994.955 131.331 998.586 132.938L999.355 133.634C1005.34 135.494 1011.94 139.305 1018.1 141.07C1019.03 141.751 1020.24 142.414 1020.46 141.244C1018.59 139.175 1016.38 139.57 1014.46 137.918C1016.49 138.022 1019.23 139.272 1020.91 139.13C1027.75 141.437 1034.97 142.309 1042.44 146.005C1043.06 145.851 1043.88 146.408 1044.43 146.019C1046.21 146.514 1048.26 147.072 1050.12 147.774C1050.85 147.921 1051.7 148.853 1052.26 148.029L1052.26 148.029ZM1044.98 143.829C1034.43 141.38 1024.33 138.182 1013.72 134.176C1011.45 134.205 1008.76 132.567 1006.51 132.644L1006.51 132.646C1003.4 131.384 1000.29 130.338 997.175 129.514C995.495 128.563 993.773 127.956 992.07 127.714C990.562 126.517 989.59 127.213 988.354 126.101C987.947 125.999 988.24 126.509 987.791 126.241C985.923 125.315 984.04 124.556 982.153 123.967C981.645 124.524 982.536 124.707 982.293 125.198L982.292 125.199C981.255 125.04 980.208 124.576 979.217 123.832C980.793 123.155 982.481 122.856 984.223 122.947C985.729 122.309 987.355 122.078 989.029 122.264C992.795 121.536 996.667 121.305 1000.6 121.576C1003.07 120.508 1006.1 121.606 1008.5 119.975L1008.49 119.974C1009.8 120.222 1011.08 120.17 1012.29 119.821C1012.62 120.169 1012.84 119.987 1013.2 120.482C1014.58 118.975 1016.49 119.665 1018.15 119.255L1018.39 118.563C1013.71 114.658 1007.38 110.174 1002.08 105.461C1004.93 103.59 1009.03 103.992 1012.35 102.918L1012.35 102.917C1012.73 103.127 1013.12 103.243 1013.51 103.261C1015.72 103.012 1017.97 103.003 1020.25 103.237C1020.46 103.187 1020.54 102.658 1020.74 102.608C1022.35 102.412 1023.93 102.604 1025.54 102.432C1028.77 102.087 1032.68 102.462 1036.01 101.967C1036.91 101.742 1038.07 101.837 1039.25 101.67L1039.25 101.672C1040.59 101.883 1041.87 101.566 1042.96 100.755C1043.36 101.111 1042.99 100.898 1042.9 101.275L1042.9 101.273C1044.48 101.43 1046.01 101.19 1047.42 100.561C1047.2 99.1973 1045.35 97.7565 1044.43 96.8455C1043.16 95.5633 1041.79 94.9659 1041.18 93.4708L1041.18 93.4692C1038.55 91.1324 1036.02 88.4771 1033.63 85.5401C1035.45 84.9131 1037.43 84.9286 1039.2 84.1623C1040.11 84.9222 1040.88 83.7444 1041.59 84.7093C1041.82 84.3223 1041.27 84.1561 1041.67 84.0555L1041.67 84.0557C1043.64 83.8094 1045.55 83.3346 1047.41 82.6355C1052.64 82.4069 1057.79 81.6478 1062.81 80.3632C1063.05 80.1022 1063.35 79.5971 1062.96 79.1891C1063.06 79.1621 1063.58 79.1851 1063.37 78.8584C1064.04 78.6921 1064.6 79.4655 1065.52 80.0998C1067.51 81.4551 1069.8 82.3061 1071.66 83.391C1072.14 83.5765 1071.8 83.9635 1072.08 84.1721C1072.37 84.3808 1072.63 83.7079 1073.04 83.9362C1081.46 88.941 1089.73 91.0946 1098.84 97.8028L1098.84 97.8012C1098.2 98.1166 1097.46 98.0778 1096.74 97.6891C1096.39 98.0278 1095.86 97.4766 1095.55 97.9834L1095.55 97.9831C1091.14 97.5078 1086.78 97.5306 1082.5 98.0504C1082.21 98.1238 1081.79 97.3908 1081.61 98.1199C1077.57 97.2716 1073.99 98.3085 1070.01 97.6998C1068.39 97.948 1066.72 97.9295 1065.02 97.6443C1064.82 97.4915 1064.79 98.0562 1064.62 98.0233L1064.62 98.0216C1062.79 97.4575 1060.98 97.2683 1059.22 97.4595C1058.88 98.3028 1059.57 98.8674 1059.6 99.645C1060.23 100.146 1060.62 99.5443 1061.43 100.331C1061.26 100.652 1060.94 100.451 1060.87 101.101C1061.59 101.987 1061.93 101.422 1062.45 101.469C1069.8 109.043 1078.11 117.394 1085.29 125.439C1074.71 125.655 1063.9 124.586 1053.46 124.967C1053.07 125.063 1052.68 125.466 1052.27 125.514L1052.27 125.516C1050.06 125.443 1047.89 125.601 1045.76 125.991C1043.01 125.099 1040.9 126.459 1038.02 125.373L1038.02 125.373C1037.65 125.631 1037.22 125.737 1036.77 125.682C1036.26 125.127 1035.46 124.642 1035.19 124.025C1034.98 124.075 1034.88 124.532 1034.75 124.891C1035.08 125.35 1035.34 125.911 1035.49 126.508C1039.45 130.643 1042.91 135.913 1046.76 139.97C1047.12 141.883 1048.97 143.399 1049.82 145.19L1049.82 145.192C1048.22 145.165 1046.58 144.703 1044.98 143.831L1044.98 143.829Z" fill="#DF5000"/>
<path fill-rule="evenodd" clip-rule="evenodd" d="M135.851 443.544C133.674 441.375 134.045 437.547 133.782 434.471C133.506 430.912 131.66 427.415 131.878 423.76C130.202 419.871 130.777 413.554 129.946 409.265C123.433 413.992 116.092 417.244 109.822 422.372C110.478 423.077 109.279 423.562 109.649 423.038C109.586 422.784 109.901 422.759 109.642 422.579C107.906 423.415 105.695 423.557 104.835 425.774C104.032 424.403 102.836 426.269 101.982 425.479C101.527 423.643 102.936 423.213 103.483 422.399C103.815 420.502 104.993 420.076 105.297 418.133C105.053 417.651 104.387 417.627 104.454 416.744L104.453 416.744C106.512 414.832 108.248 412.342 109.581 409.381C109.401 408.9 109.341 408.375 109.413 407.908C109.842 406.802 110.534 405.996 111.391 405.603C111.722 405.141 111.322 405.321 111.208 404.862C114.54 401.763 116.03 395.545 119.128 392.071C119.524 390.934 120.09 389.967 120.794 389.222C121.449 387.575 122.291 386.126 123.293 384.92C125.666 380.109 128.185 375.883 130.477 370.74L130.476 370.74C132.234 370.157 133.613 368.52 134.306 366.19C136.158 367.979 136.03 372.288 136.041 375.426L136.04 375.427C135.956 379.761 136.161 384.181 136.653 388.624C137.913 386.822 139.305 385.217 140.813 383.829C146.416 374.983 152.514 366.825 159.062 359.408C160.026 359.846 160.313 358.124 161.061 358.913C161.519 360.262 160.523 360.915 160.566 362.313C161.198 361.913 161.619 361.023 162.426 362.122C161.765 364.288 160.94 366.306 159.961 368.15C156.473 382.669 152.146 396.55 147.016 409.668C146.957 410.225 146.756 410.49 146.862 411.276C145.108 415.202 144.392 420.307 142.937 424.649C142.175 426.896 141.206 429.248 140.479 431.566C139.752 433.886 138.77 435.969 137.997 438.245C137.375 440.052 137.356 442.71 135.852 443.544L135.851 443.544ZM134.768 375.256C134.708 373.863 134.243 372.488 134.151 371.4C134.243 372.488 134.783 373.952 134.774 375.281L134.768 375.256ZM134.141 370.782L134.192 370.986L134.141 370.782ZM133.415 372.884C133.451 374.473 134.316 376.019 133.784 377.396C134.299 376.022 133.435 374.477 133.381 372.893L133.415 372.884ZM133.124 375.096L133.124 375.094C133.437 375.574 133.66 376.15 133.766 376.75C133.646 376.183 133.42 375.648 133.116 375.206L133.124 375.096ZM134.246 380.341C134.28 380.982 134.341 381.59 134.408 382.223C134.341 381.59 134.29 380.953 134.256 380.312L134.246 380.341ZM134.068 383.581L134.067 383.579C134.121 385.345 134.24 387.123 134.424 388.908C134.256 387.147 134.149 385.393 134.102 383.652L134.068 383.581ZM134.717 387.996L134.715 387.995C134.666 388.475 134.576 388.934 134.447 389.361C134.584 388.958 134.686 388.524 134.75 388.067L134.717 387.996ZM138.049 390.229C138.231 390.103 138.462 390.127 138.671 390.292L139.256 389.416L138.688 390.288C138.473 390.114 138.234 390.092 138.049 390.229ZM140.142 386.732C140.109 386.744 140.076 386.752 140.041 386.757C140.071 386.757 140.099 386.75 140.126 386.736L140.142 386.732ZM139.941 386.782C139.975 386.777 140.008 386.769 140.041 386.757L139.941 386.782ZM139.705 386.84L139.604 386.865L139.752 387.101L139.705 386.84ZM145.647 379.954L145.94 379.556L145.902 379.403L145.934 379.531L145.647 379.954ZM145.353 379.702C145.29 379.846 145.203 379.96 145.097 380.035C145.208 380.023 145.312 379.98 145.404 379.906L145.353 379.702ZM154.235 368.784C154.305 368.774 154.372 368.757 154.437 368.734C154.372 368.757 154.305 368.774 154.235 368.784ZM157.567 365.25L157.568 365.25C157.595 365.239 157.622 365.233 157.651 365.229C157.663 365.105 157.688 364.99 157.727 364.886C157.65 365.033 157.602 365.211 157.588 365.407L157.567 365.25ZM158.391 364.045L158.393 364.045C158.425 364.25 158.412 364.451 158.356 364.622C158.412 364.451 158.425 364.25 158.393 364.045L158.391 364.045ZM154.733 368.849C154.792 368.848 154.849 368.834 154.902 368.807C154.866 368.892 154.815 368.959 154.755 369.006L154.733 368.849ZM154.753 369.575C154.661 369.83 154.473 369.968 154.255 369.942C154.473 369.968 154.661 369.83 154.753 369.575ZM142.489 383.903C142.686 383.775 142.911 383.72 143.144 383.741C142.916 383.72 142.698 383.774 142.507 383.899L142.489 383.903ZM139.403 387.997C139.274 388.192 139.173 388.434 139.036 388.602C139.2 388.401 139.307 388.186 139.438 387.991L139.403 387.997ZM138.573 389.178C138.328 389.482 138.088 389.812 137.82 390.095C138.105 389.809 138.294 389.492 138.607 389.171L138.573 389.178ZM158.124 370.446C158.624 368.724 158.718 366.291 159.82 365.559C158.703 366.161 158.635 368.695 158.124 370.446ZM160.113 365.377C159.251 367.079 159.179 370.319 157.929 370.953C159.186 370.345 159.245 367.056 160.113 365.379L160.113 365.377ZM152.257 390.663C152.338 390.129 152.439 389.67 152.533 389.188C152.423 389.676 152.311 390.162 152.247 390.694L152.257 390.663ZM154.364 383.482C154.157 384.746 153.858 385.953 153.475 387.087C153.856 385.944 154.153 384.728 154.357 383.455L154.364 383.482ZM141.248 423.445C143.949 412.061 147.183 401.078 150.929 390.56C152.392 382.074 155.781 376.605 157.484 368.44C156.436 369.268 155.545 370.406 154.857 371.797C152.162 375.307 148.916 378.683 146.02 382.109C144.58 383.927 143.188 386.006 141.731 388.044C139.917 390.578 138.362 394.159 135.913 395.929C131.954 391.17 134.017 381.074 131.921 374.986C129.324 378.916 126.898 383.077 124.652 387.456C120.436 393.875 116.618 400.829 113.227 408.264C110.802 411.573 109.544 416.784 106.965 419.833C107.233 420.552 108.944 418.829 110.096 418.083C113.321 415.985 115.981 413.917 119.079 411.743C119.415 411.659 119.839 411.717 120.07 411.497C120.646 411.084 121.441 409.832 121.732 409.569C123.547 408.508 125.274 407.23 126.899 405.743C128.176 404.345 129.089 402.71 130.217 401.429C131.156 401.982 130.887 404.134 131.074 405.684C131.262 407.235 131.681 408.567 131.772 409.653L131.771 409.655C131.782 411.428 131.855 413.217 131.993 415.015C132.582 418.686 134.132 422.067 134.369 425.256C134.394 430.395 135.808 433.943 136.139 438.736L136.14 438.735C138.314 434.085 140.029 428.95 141.247 423.445L141.248 423.445Z" fill="#F5F5F5"/>
<path fill-rule="evenodd" clip-rule="evenodd" d="M102.409 256.117L102.561 256.079C102.561 256.079 102.637 256.386 102.519 256.415C102.402 256.444 102.365 256.372 102.409 256.117Z" fill="#F5F5F5"/>
<path fill-rule="evenodd" clip-rule="evenodd" d="M144.438 295.098C143.93 294.844 143.719 293.706 143.055 293.978C140.762 291.555 138.372 289.366 135.909 287.436C136.334 288.143 137.002 288.465 137.327 289.278C136.912 289.543 136.468 288.543 136.016 288.303C136.079 288.558 135.95 288.537 135.92 288.707C135.461 288.535 135.023 288.171 134.663 287.664C134.881 287.61 135.159 288.083 135.356 287.872C135.054 287.729 134.701 287.167 134.301 286.779C133.901 286.39 132.199 284.916 132.159 285.332C132.033 284.821 132.046 284.873 131.765 284.672C131.484 284.472 131.815 284.877 131.721 284.927C128.594 281.47 125.235 278.559 121.735 276.271C121.543 276.075 121.892 276.044 121.653 275.94C121.413 275.837 121.403 275.651 121.435 275.994C121.466 276.338 121.479 276.172 121.479 276.172L121.478 276.173C121.48 276.112 121.464 276.048 121.434 275.995C121.316 276.024 121.144 275.904 121.165 276.061C121.75 277.537 122.241 279.066 122.634 280.625C122.769 280.591 122.71 280.931 122.883 280.914C123.221 282.78 124.001 284.13 124.399 285.954C124.099 286.326 124.169 287.04 124.335 287.785L124.033 287.86L124.034 287.859C124.302 288.766 124.474 289.703 124.541 290.631C124.106 290.603 124.204 289.847 123.744 290.071C123.655 289.713 123.548 289.281 123.34 289.089C122.455 288.902 121.686 287.306 121.028 286.953C121.085 287.183 120.955 287.16 120.988 287.369L120.989 287.367C119.101 285.377 117.154 283.527 115.16 281.826C115.212 282.008 115.198 282.196 115.122 282.323C113.036 280.592 110.718 277.999 108.531 276.293C108.606 276.599 108.751 276.536 108.682 276.905C108.313 276.996 108.216 276.533 107.995 276.289C107.14 275.715 106.617 274.682 105.683 274.154L105.588 273.771C105.185 273.871 104.722 272.794 104.086 272.6L103.947 272.039C103.843 272.107 103.712 272.09 103.596 271.99C103.536 271.786 103.446 271.595 103.333 271.432C103.248 271.453 103.402 271.713 103.081 271.495C102.711 270.719 102.283 270.935 101.997 270.356C102.035 270.509 102.161 270.586 102.117 270.84C102.073 271.095 101.361 270.378 101.326 270.169C100.995 269.981 100.967 270.014 100.712 269.564L100.744 269.692C100.45 269.222 99.9415 268.971 99.6474 268.502C99.0842 268.316 98.9852 267.555 98.3517 267.442C98.301 267.237 98.282 267.161 98.1561 267.084C96.8895 266.072 95.7269 264.977 94.4639 263.91C94.2284 263.968 94.1552 263.742 93.9245 263.745C93.8676 263.515 93.7607 263.515 93.6724 263.375C92.1454 262.752 90.9977 261.572 89.6761 261.061C90.3607 262.831 90.9639 264.644 91.4842 266.489L91.5851 266.896C91.6582 266.689 91.9479 266.995 91.7767 267.093C91.6044 267.19 91.7495 267.56 91.9156 267.653C93.1093 272.041 94.7545 276.671 95.9508 281.355L95.9512 281.357C96.2549 281.981 96.4826 282.659 96.6243 283.357C96.5001 283.593 96.4039 283.863 96.3415 284.158C96.0351 284.066 95.7326 284.074 95.4569 284.186C93.6872 283.572 91.9219 282.816 90.1721 281.922C89.1608 281.358 88.1215 281.037 87.104 280.976C87.3219 280.922 87.4923 281.178 87.5451 281.462C86.4924 281.318 85.4295 280.852 84.4265 280.096C84.7882 280.331 84.8799 279.984 85.065 279.938L85.0639 279.938C84.3219 279.508 83.5685 279.162 82.8106 278.898C82.8802 279.179 82.8461 279.403 83.0718 279.376C83.2959 279.347 83.0718 279.376 83.0211 279.171C83.412 279.454 83.6788 279.522 84.2309 279.954C84.0344 279.944 83.8351 279.912 83.6362 279.857C83.2771 279.703 82.3002 278.996 82.1491 279.034C81.9979 279.071 82.1491 279.034 81.96 278.918L81.9605 278.92C81.8987 279.007 81.8026 279.031 81.7074 278.983C80.0313 277.828 78.5335 277.901 77.1345 276.785C76.196 276.667 75.2208 276.258 74.02 276.014C73.8309 275.898 73.9693 275.809 73.8306 275.681L73.8302 275.679C73.7332 275.715 73.6313 275.74 73.5279 275.754C73.1393 275.586 72.748 275.447 72.3564 275.342C72.1231 275.263 71.5336 275.328 71.5148 275.036L71.5143 275.035C71.9592 275.189 72.4042 275.234 72.831 275.169C71.7485 274.499 70.6371 274.028 69.5242 273.767C69.5621 273.92 69.411 273.958 69.3693 274.076C69.3277 274.194 69.6506 274.493 70.1091 274.542C69.7943 274.783 69.1429 274.457 68.3867 273.994C68.3807 274.402 68.2265 273.709 68.1348 274.057C67.8867 273.848 68.1004 273.415 67.8281 273.32C67.8912 273.575 67.866 273.473 67.8637 273.825C67.3596 273.733 67.0723 273.723 66.8266 273.162L66.9085 273.493C66.3691 273.329 66.1802 272.998 65.8399 273.135C65.5787 272.657 65.1004 272.885 64.7347 272.704C64.3694 272.524 64.4159 272.35 64.2391 272.285L64.2377 272.289C61.8648 271.479 59.4892 270.874 57.1225 270.476C56.2787 270.116 55.4279 269.864 54.5825 269.724C53.7032 269.698 52.4988 269.158 51.7745 269.256L51.7757 269.256C51.7921 269.427 51.7487 269.584 51.6587 269.672C51.5694 269.758 51.447 269.766 51.3302 269.691C51.2795 269.486 51.3423 269.308 51.2895 269.025L51.2903 269.023C50.8884 268.771 50.4684 268.662 50.0697 268.704C50.1097 268.288 49.6056 268.195 49.7316 268.057C49.8577 267.918 50.9062 268.551 51.2045 268.315C51.0698 268.349 51.0129 268.119 50.9689 267.941L50.9684 267.939C51.1211 267.888 51.2781 267.849 51.4382 267.823C51.5698 266.627 51.9989 264.976 51.8134 264.157L51.8452 264.285L51.8447 264.283C51.7787 263.931 51.8816 263.603 52.0947 263.49C52.1051 262.041 52.3151 260.665 52.7128 259.439C53.146 257.734 53.6661 256.088 54.0631 254.528L54.0643 254.528C54.1906 254.4 54.3024 254.244 54.3951 254.066C54.7612 252.16 55.8462 250.998 56 248.958C56.2242 248.714 56.4114 248.099 56.2888 247.75C56.1663 247.4 56.4563 247.708 56.5911 247.675C56.8799 246.466 57.3727 245.504 57.7119 244.283C57.4218 243.975 57.0693 243.847 57.0082 243.239C57.4813 243.407 57.956 243.516 58.4255 243.564C58.3558 243.283 58.3118 243.105 58.4527 243.096C58.5936 243.088 58.4127 243.512 58.491 243.899C61.3422 246.198 64.9272 247.72 68.0455 250.088C69.1356 250.604 69.7241 251.323 70.8081 251.814C73.6568 253.817 77.0688 256.438 79.9954 258.825L79.9958 258.827C79.5583 256.478 79.0147 254.143 78.3715 251.837C78.5596 253.606 78.6859 254.332 78.9075 256.09L78.5571 256.041L78.5576 256.043C78.3148 255.022 78.13 253.99 78.0072 252.957L78.0579 253.161C77.806 251.431 77.4391 249.709 76.963 248.018C76.6346 246.692 77.0363 245.291 76.5151 244.121C76.5014 242.77 75.7156 241.61 75.7226 240.419C75.7286 240.011 75.9462 239.74 75.9548 239.413C75.9436 238.143 75.3227 236.861 75.2174 235.643L75.4851 235.142C75.6023 235.113 75.634 235.241 75.7307 235.27C75.8278 235.301 75.9848 235.071 75.9295 234.707C75.737 234.522 75.5633 234.288 75.4213 234.021C75.6311 233.427 76.0137 234.254 76.375 234.272C76.7364 234.29 76.4442 233.903 76.6606 233.984L76.6599 233.986C78.1001 234.655 79.5106 235.58 80.8542 236.738C83.3103 238.16 84.9893 241.128 87.4926 242.811C87.3351 243.039 87.8585 243.425 87.9881 243.23C88.1715 243.971 88.7293 243.778 89.051 244.429L89.2864 244.371C89.5538 244.873 89.8385 244.802 90.175 245.152C90.238 245.406 89.8036 245.379 90.024 245.621C90.2448 245.865 90.1094 245.464 90.3096 245.334C92.4064 247.594 94.5869 249.661 96.8323 251.517C96.9332 251.924 97.1439 251.981 97.4435 252.041C97.614 252.73 98.385 252.675 98.5821 253.546C98.5821 253.546 98.5063 253.24 98.6198 253.267C98.7334 253.293 99.1997 253.665 99.3382 254.008C99.7073 253.917 100.517 255.097 101.04 255.049C101.027 255.432 101.103 255.303 101.288 255.258L101.288 255.259C101.351 255.467 101.466 255.644 101.606 255.749C101.691 255.592 101.53 255.443 101.702 255.346L101.738 255.851L101.738 255.852C104.274 258.418 106.873 260.819 109.528 263.047C109.484 262.87 109.206 262.613 109.389 262.487C110.42 263.659 111.488 264.751 112.587 265.755C111.236 262.681 109.759 259.7 108.167 256.832C107.679 255.437 106.641 254.339 106.476 252.811C106.728 252.748 106.781 253.034 106.968 253.069C106.873 252.686 106.879 252.711 106.978 252.39C107.759 252.739 108.413 254.012 109.125 253.862L109.125 253.86C109.737 254.755 110.52 255.345 111.316 255.511L111.253 255.256C111.19 255.002 111.471 255.635 111.498 255.384C111.526 255.134 111.218 255.047 111.428 255.103C111.639 255.159 112.189 255.727 112.194 256.105C112.6 256.518 112.944 256.326 113.356 256.981C113.356 256.981 113.305 256.776 113.441 256.824C113.577 256.871 113.511 257.105 113.62 256.968C113.73 256.833 113.652 257.096 113.582 257.248C114.122 257.412 114.125 257.925 114.801 258.137L114.896 258.52C115.763 258.711 116.514 259.798 117.41 260.606L117.586 261.32C117.63 261.498 118.025 261.942 118.346 261.943L118.347 261.947C120.747 264.745 123.251 267.328 125.841 269.676C126.043 270.493 126.921 270.653 127.104 271.394C127.322 271.34 127.531 271.749 127.672 271.958C128.265 272.16 128.802 272.79 129.079 273.611C129.028 273.407 129.009 273.33 129.176 273.288C129.502 273.884 130.418 274.416 130.783 275.165L130.783 275.166C131.066 275.24 131.331 275.529 131.469 275.916C131.805 276.05 131.882 276.437 132.212 276.544L132.213 276.546C132.788 277.478 133.434 278.319 134.133 279.047C134.253 279.531 134.585 279.721 134.896 279.969C135.46 281.021 136.255 281.717 136.847 282.734L137.065 282.68C138.294 284.191 139.274 285.41 140.506 286.999L140.506 287.001C141.695 288.304 142.741 289.885 143.584 291.653C144.2 292.774 145.312 293.662 145.48 295.137C145.638 295.341 145.993 295.767 145.683 295.954C145.384 295.756 145.188 294.966 144.437 295.097L144.438 295.098ZM128.752 280.49L128.809 280.287C128.807 280.286 128.738 280.439 128.751 280.491L128.752 280.49ZM128.458 280.238C128.457 280.239 128.433 280.216 128.457 280.239L128.458 280.238ZM130.484 282.011L130.483 282.011C130.425 282.008 130.366 281.976 130.316 281.916C130.366 281.981 130.428 282.025 130.489 282.036L130.484 282.011ZM130.219 281.806L130.175 281.628L130.219 281.806ZM128.853 280.9L128.852 280.898C128.806 280.809 128.751 280.732 128.688 280.669C128.752 280.728 128.808 280.807 128.852 280.898L128.853 280.9ZM127.954 279.931L127.953 279.929C128.045 279.984 128.133 280.053 128.218 280.135C128.133 280.054 128.044 279.986 127.953 279.929L127.954 279.931ZM122.464 284.324C122.464 284.324 122.424 284.522 122.54 284.63L122.538 284.628C122.47 284.539 122.453 284.402 122.495 284.314L122.464 284.324ZM123.447 284.405L123.535 284.763C123.559 284.863 123.544 284.515 123.479 284.395L123.447 284.405ZM123.016 286.053C122.953 285.799 122.738 285.58 122.858 285.416C122.64 285.47 122.959 285.823 123.022 286.08L123.016 286.053ZM99.5314 266.878C99.5017 266.898 99.4666 266.907 99.4307 266.903C99.4661 266.905 99.5013 266.897 99.5314 266.878ZM97.0837 265.344L97.2563 265.464L97.0837 265.344ZM97.2512 265.303L97.2517 265.304C97.1953 265.182 97.1214 265.08 97.0357 265.005C97.0845 265.066 97.1262 265.139 97.1593 265.218L97.2512 265.303ZM98.3315 266.064L98.2936 265.911C98.2557 265.758 98.2936 265.911 98.2936 265.911L98.3376 266.089L98.3315 266.064ZM99.6803 266.977C99.7226 266.957 99.7683 266.946 99.815 266.943L99.8781 267.198L99.8084 266.917C99.7343 266.894 99.6597 266.884 99.588 266.89L99.6803 266.977ZM95.0143 263.611C95.3166 263.536 95.8842 264.532 96.2365 264.228C96.284 264.369 96.358 264.493 96.4496 264.581C96.3588 264.49 96.2847 264.367 96.2365 264.228C95.8678 264.536 95.2746 263.437 94.9979 263.615L95.0143 263.611ZM85.3091 280.42C85.1427 280.325 84.896 280.333 84.7507 280.178C84.8554 280.315 85.1196 280.302 85.3087 280.418L85.3091 280.42ZM67.8105 273.896C67.9452 273.862 68.0463 274.054 68.2262 274.063L68.225 274.063C68.0945 274.048 67.9603 273.998 67.8331 273.916L67.789 273.738C67.7824 273.712 67.7837 273.793 67.7991 273.925L67.8105 273.896ZM67.5459 273.691C67.4829 273.436 67.1576 273.489 67.0014 273.365C66.8463 273.241 67.4485 273.443 67.5459 273.691C67.6429 273.937 67.4112 273.724 67.3104 273.749C67.4085 273.859 67.3455 273.605 67.5279 273.694L67.5459 273.691ZM67.1704 273.54L67.1688 273.539C67.0882 273.51 67.0085 273.529 66.9497 273.593C67.0056 273.538 67.0771 273.52 67.1524 273.543L67.1704 273.54ZM52.2226 263.568L52.2214 263.569C52.496 263.136 52.646 262.557 52.6493 261.918C52.6489 262.533 52.5051 263.092 52.2414 263.509L52.2226 263.568ZM53.4629 262.747L53.4312 262.619L53.3683 262.797L53.4629 262.747ZM53.5987 262.578L53.6802 262.259L53.5987 262.578ZM53.5101 262.22L53.509 262.22C53.5557 262.294 53.5791 262.388 53.572 262.475C53.5539 262.387 53.507 262.308 53.4484 262.262L53.5101 262.22ZM52.4182 262.491L52.3454 262.915L52.4182 262.491ZM54.6177 257.694C54.4501 257.736 54.6745 257.924 54.6996 258.025C54.6996 258.025 54.7248 258.127 54.6996 258.025L54.5989 258.05L54.6996 258.025C54.6996 258.025 54.4501 257.736 54.611 257.668L54.6177 257.694ZM54.6177 257.694L54.6165 257.695C54.6249 257.774 54.6443 257.852 54.6733 257.924L54.6177 257.694ZM80.3855 260.248L80.3843 260.248C80.3182 259.981 80.1686 259.754 79.9844 259.643C80.149 259.77 80.2806 259.985 80.3442 260.232L80.3855 260.248ZM78.8174 258.957C79.2545 259.281 79.6972 259.633 80.107 259.992C79.611 259.616 79.1051 259.28 78.5921 258.986L78.8174 258.957ZM77.088 257.517L77.369 257.718L77.0638 257.495L77.088 257.517ZM80.7307 258.619L80.7295 258.619C80.8481 258.892 80.9217 259.189 80.9442 259.486C80.9142 259.129 80.8256 258.771 80.685 258.44L80.7307 258.619ZM79.107 252.063C78.9272 250.619 78.214 249.251 78.1466 248.185L78.145 248.184C78.1342 248.045 78.1364 247.908 78.151 247.776L78.1286 248.188C78.1497 249.212 78.9242 250.537 79.0488 252.049L79.107 252.063ZM77.3925 247.154L77.3909 247.152C77.5252 247.544 77.5851 247.962 77.5635 248.356C77.6741 248.085 77.4532 247.409 77.3712 247.078L77.3925 247.154ZM78.0474 246.992L78.0458 246.99C78.0728 247.144 78.0812 247.299 78.069 247.445C78.0858 247.307 78.0854 247.16 78.0688 247.013L77.5254 244.819C77.5802 245.617 77.8881 246.353 78.0524 247.017L78.0474 246.992ZM77.4377 243.596L77.436 243.594C77.6294 244.149 77.7717 244.724 77.8596 245.304C77.7713 244.707 77.6245 244.114 77.4237 243.544L77.4377 243.596ZM76.6708 242.513L76.6267 242.335L76.6708 242.513ZM76.3036 240.383L76.2657 240.229L76.3036 240.383ZM82.7365 238.572L82.7342 238.573C82.9215 238.742 83.1028 238.921 83.279 239.116C83.0713 238.935 82.8578 238.771 82.64 238.624L82.7365 238.572ZM83.745 239.622L83.7439 239.622C82.5039 238.783 81.2957 237.805 80.1315 236.7C81.2925 237.848 82.4955 238.879 83.7314 239.788L83.745 239.622ZM83.4936 240.334C84.2599 240.983 85.0065 241.693 85.8057 242.47C84.9338 241.766 84.1999 241.107 83.4045 240.411L83.4936 240.334ZM85.8057 242.47L85.8034 242.47C84.4878 241.642 83.2349 240.524 82.0974 239.165C83.2518 240.582 84.5292 241.749 85.8753 242.615L85.8057 242.47ZM83.834 242.064C83.6096 241.876 83.3512 241.697 83.1093 241.513C83.3512 241.697 83.6096 241.876 83.834 242.064L84.1011 242.35L83.834 242.064ZM84.4959 242.794L84.7039 242.986L84.4959 242.794ZM85.3429 243.478L85.3405 243.478C85.4403 243.55 85.5441 243.607 85.6493 243.645C85.5332 243.629 85.4175 243.593 85.3029 243.542L85.3429 243.478ZM85.9001 244.07L85.8966 244.071C84.1726 242.934 82.5078 241.53 80.9379 239.885L80.8535 239.906L80.8547 239.905C82.4672 241.636 84.1812 243.119 85.9603 244.328L85.9001 244.07ZM90.0381 245.592L90.0346 245.592C90.1906 245.59 90.3521 245.674 90.4868 245.832C90.3318 245.723 90.1649 245.687 90.0156 245.731L90.0381 245.592ZM90.429 245.874C90.429 245.874 90.6268 246.095 90.6523 246.199C90.6484 246.198 90.4254 246.091 90.4064 246.014L90.429 245.874ZM90.953 247.342L90.9491 247.342C91.2305 247.589 91.5053 247.855 91.7712 248.141C91.5122 247.863 91.2454 247.604 90.9732 247.364L90.953 247.342ZM91.883 247.573L91.7987 247.594C91.7959 247.593 91.8452 247.716 91.8616 247.712L91.883 247.573ZM91.7631 247.089L91.7604 247.088C91.8132 247.256 91.8997 247.404 92.0088 247.513C91.893 247.402 91.8022 247.242 91.7537 247.061L91.7631 247.089ZM92.1644 247.775L92.2023 247.928L92.1644 247.775ZM91.7931 248.003L91.7899 248C92.3062 248.433 92.8074 248.915 93.2889 249.444C92.7958 248.954 92.2871 248.512 91.7646 248.114L91.7931 248.003ZM96.4156 252.273L96.4123 252.27C95.9 252.104 95.4121 251.676 95.0447 251.066C95.4244 251.695 95.9289 252.141 96.4591 252.313L96.4156 252.273ZM113.164 266.425C113.126 266.219 113.076 266.014 113.012 265.813C113.072 266.015 113.123 266.22 113.164 266.425ZM112.513 267.398C112.472 267.422 112.426 267.433 112.38 267.431C112.432 267.481 112.488 267.512 112.545 267.526L112.513 267.398ZM112.038 266.921L112.244 267.25L112.245 267.249C112.111 267.115 111.998 266.936 111.921 266.733L112.038 266.921ZM112.448 267.28L112.449 267.28C112.359 267.097 112.222 266.97 112.078 266.937C112.156 266.892 112.251 267.057 112.346 267.224L112.448 267.28ZM114.185 268.176C113.938 267.976 113.727 267.677 113.583 267.324C113.7 267.641 113.874 267.917 114.082 268.12L114.185 268.176ZM113.728 266.908L113.35 266.245L113.728 266.908ZM112.665 264.843C112.442 264.522 112.281 264.126 112.207 263.712C112.262 264.102 112.393 264.484 112.586 264.81L112.665 264.843ZM112.665 264.843C112.59 264.518 112.471 264.205 112.314 263.929C112.429 264.191 112.517 264.472 112.573 264.758L112.665 264.843ZM110.938 259.884L110.938 259.882C110.907 259.841 110.893 259.782 110.9 259.729C110.874 259.713 110.848 259.708 110.826 259.721L110.938 259.884ZM110.887 259.679L110.988 259.655C110.988 259.655 110.869 259.467 110.843 259.5L110.887 259.679ZM110.057 257.475L109.981 257.169L110.057 257.475ZM109.733 257.176C109.731 257.176 109.705 256.994 109.693 257.023L109.733 257.176ZM108.95 255.528L108.949 255.528C109.174 256.115 109.422 256.686 109.694 257.24C109.424 256.695 109.177 256.133 108.956 255.555C109.077 255.684 109.19 255.828 109.295 255.985C109.181 255.756 109.05 255.543 108.905 255.35L108.95 255.528ZM109.934 257.126C109.781 256.779 109.604 256.45 109.405 256.146C109.582 256.395 109.744 256.663 109.89 256.948L109.934 257.126ZM139.654 288.593L139.821 288.552C139.689 288.016 139.162 287.903 138.982 287.324L138.765 287.378C137.724 286.2 136.773 284.812 135.623 283.69C135.617 283.489 135.565 283.283 135.477 283.102C134.686 283 134.672 281.866 134.034 281.592C133.028 279.404 130.959 277.887 129.596 275.841C129.496 275.865 129.468 276.116 129.311 276.128C127.569 274.205 126.059 271.925 124.227 269.995C124.189 269.842 124.138 269.638 124.023 269.532L124.022 269.53C122.96 268.594 121.973 267.45 121.097 266.139C120.845 266.202 120.672 265.865 120.502 265.61C120.261 265.859 119.362 264.675 118.838 264.073L118.299 263.476C117.837 263.067 117.364 262.695 116.882 262.363C116.84 262.166 116.828 261.967 116.844 261.778C115.968 261.264 115.353 260.224 114.427 259.94C113.237 258.624 111.985 257.447 110.687 256.426C110.782 256.808 111.157 256.959 111.245 257.451C111.33 257.944 111.144 257.693 111.132 257.859C111.931 260.369 112.889 262.432 113.562 265.082L113.73 265.04C114.308 266.325 114.699 267.73 114.87 269.144C114.927 269.373 115.062 269.34 114.99 269.628L114.991 269.629C114.376 269.067 113.73 268.608 113.067 268.264C113.029 268.544 113.137 268.545 113.271 268.727C113.028 269.112 112.463 268.414 112.631 267.938C112.496 267.971 112.566 268.252 112.262 268.029C111.956 267.807 112.23 267.901 112.18 267.698L112.177 267.699C109.124 264.323 105.965 261.18 102.717 258.29C103.205 259.252 104.566 259.999 105.002 260.892L105.002 260.894C105.851 261.72 106.669 262.621 107.453 263.59C107.214 264.136 106.64 263.115 106.445 262.757C106.249 262.4 105.808 262.347 105.695 261.887C105.527 261.929 105.443 261.95 105.352 262.161C103.536 260.227 102.019 258.709 100.195 256.886L100.194 256.885C100.273 257.011 100.312 257.171 100.302 257.319C99.7676 257.196 99.2625 256.683 98.969 255.97L98.9251 256.224C98.62 256.001 98.9284 255.304 98.5254 255.404C98.6855 255.689 98.6929 255.362 98.6391 255.863C98.4058 255.784 98.3025 255.729 98.387 255.493C97.8804 255.32 96.8993 254.02 96.226 253.319C96.1417 253.34 95.9577 253.386 95.8078 253.072L95.8085 253.07C95.1201 252.349 94.4069 251.683 93.6757 251.08C92.0975 249.603 90.0896 248.259 88.4396 246.637L88.1713 246.704C87.5007 245.869 86.4927 245.469 85.8592 244.568C82.3382 242.516 79.9457 239.046 76.7731 236.313L76.7742 236.313C76.9959 237.414 77.0583 238.524 76.9569 239.571C77.2432 240.486 77.4453 241.427 77.561 242.371C78.6683 245.833 79.2387 250.079 80.1437 253.808C80.2379 256.493 81.3125 258.528 81.4616 260.927L81.2097 260.989C81.0925 261.018 81.0519 260.352 80.8726 260.206C80.7597 260.614 80.8886 261.42 80.8172 261.925L80.5993 261.979C80.2141 260.424 79.0319 260.039 78.1233 259.181C77.9557 259.223 77.7035 259.068 77.7038 259.285L77.7043 259.287C76.7771 258.546 75.8314 257.875 74.872 257.28C74.378 256.726 73.6623 256.497 73.2974 255.747C72.4408 255.527 72.2787 254.727 71.4198 254.643C69.5995 252.992 67.7054 251.564 65.7669 250.384C64.8593 249.376 63.8458 248.628 62.7995 248.194C61.7161 247.429 60.6133 246.752 59.499 246.169L59.3473 245.556C58.9648 245.392 58.5886 245.159 58.2295 244.859C58.2802 245.063 58.0948 244.892 58.1895 245.275C57.3946 246.745 57.2805 249.236 56.5451 250.8L56.5459 250.798C56.5223 251.446 56.3726 252.037 56.1127 252.503C55.5917 254.718 55.0531 256.936 54.5851 259.218C54.4639 259.904 54.265 260.536 53.9981 261.096C53.7758 263.291 52.8171 265.179 52.5054 267.233C52.4046 267.258 52.5831 266.538 52.3011 266.77C52.3975 265.934 52.8506 265.605 52.9166 264.722C52.8597 264.492 52.6987 264.776 52.759 264.517C52.2341 265.134 52.1749 266.477 51.9966 267.63C52.1982 267.58 52.1502 267.24 52.3275 267.168C52.5064 267.097 52.3179 267.631 52.3681 267.834L52.3697 267.836C55.3567 268.339 58.3583 269.151 61.3495 270.269C62.0714 270.523 62.9117 270.532 63.5231 270.841C64.5125 271.382 65.989 271.585 67.1921 272.125C67.9735 272.474 68.7152 272.587 69.6102 272.962C72.6709 274.234 76.1983 276.096 79.4174 277.004C79.3099 276.57 79.0583 276.849 78.9471 276.471C77.1616 275.883 75.1916 274.692 73.1264 273.986L73.0634 273.731C73.7079 273.165 74.6915 274.546 75.3337 274.117C75.5832 274.406 75.9601 274.341 76.2914 274.529C76.6227 274.717 76.3483 274.759 76.4844 274.807C76.6205 274.854 76.5698 274.649 76.6191 274.773C77.063 274.994 77.4995 275.265 77.926 275.587C78.2286 275.729 78.5158 275.739 78.8246 275.906C79.1333 276.073 79.1311 276.21 79.3201 276.325C79.5092 276.441 80.1981 276.27 80.3193 276.835C80.6757 276.477 81.1759 277.056 81.5125 277.189C81.8498 277.321 81.6985 276.926 81.8836 276.88C82.2343 276.941 82.5887 277.082 82.9306 277.297C83.1805 277.543 83.4449 277.742 83.7196 277.887C84.7679 278.304 85.9084 278.807 86.8387 279.255C86.9559 279.226 86.9734 279.222 86.9392 279.013C87.2313 279.042 87.5277 279.205 87.7858 279.479C87.5584 278.561 86.2463 279.022 85.9204 277.992C86.7165 278.039 87.7845 279.398 88.1245 279.044C88.5128 279.246 88.9123 279.85 89.0796 279.376C91.1008 280.337 92.2731 280.969 94.3962 281.769C94.5289 282.304 94.1533 282.154 93.9405 282.018C93.7289 281.881 93.8551 282.175 93.9006 282.434C94.4952 282.53 95.4004 283.524 95.8352 283.552C95.7342 283.145 95.4419 282.974 95.3647 282.587C95.2863 282.2 95.2351 282.781 95.012 282.674C94.789 282.567 94.8415 281.985 94.7595 281.654L94.7591 281.652C94.2155 279.262 93.3376 276.967 92.1838 274.924C91.3731 272.6 90.3682 270.38 89.1944 268.327C89.1944 268.327 89.1627 268.199 89.2322 268.048C89.8246 268.281 89.8505 269.249 90.3168 269.621C90.5442 270.539 91.139 271.068 91.3858 272.064C91.4866 272.039 91.4427 272.294 91.634 272.273C91.7542 272.783 91.9912 273.253 92.3 273.596C91.6366 270.918 90.946 268.923 90.4654 266.55C90.3482 266.579 90.381 266.571 90.2764 266.435L90.2775 266.434C89.8381 264.012 88.9229 261.693 87.6471 259.775C87.5964 259.57 87.8653 259.938 88.0376 259.84C87.8483 259.508 87.949 259.483 88.2227 259.795C88.4302 259.337 88.0833 258.8 87.8816 258.417C87.6461 258.476 87.4871 258.19 87.3775 258.325C87.251 257.814 87.613 258.267 87.5873 257.731C88.1573 258.375 89.0996 258.656 89.2351 259.489C88.8859 259.088 88.649 259.066 88.3188 258.742C88.1613 258.969 88.6552 259.091 88.559 259.711C88.8955 259.845 89.2332 259.933 89.5685 259.977C89.3252 259.712 89.3518 259.679 89.3728 259.187L89.3724 259.185C89.7218 259.591 90.1088 259.909 90.5147 260.122C91.1577 260.775 91.8105 261.182 92.4233 261.708C93.0345 262.233 93.8142 262.284 93.9104 262.747L93.9092 262.747C93.9644 262.709 94.0046 262.641 94.0225 262.557C94.4781 262.941 94.9597 263.233 95.449 263.422C95.4808 263.55 95.5121 263.676 95.3826 263.655C95.2526 263.633 96.0943 263.723 96.1426 264.279L96.1865 264.025C96.2304 263.77 96.2623 264.331 96.2813 264.407C97.235 264.658 97.9705 265.831 98.8023 266.167L98.9032 266.574C99.0754 266.044 99.4514 266.844 99.8043 266.974L99.8051 266.972C99.8164 267.188 99.8086 267.398 99.7818 267.601C100.124 267.327 100.005 267.925 100.288 267.774C100.572 267.623 99.9519 267.64 99.9919 267.224C100.032 266.808 100.311 267.578 100.502 267.559C100.694 267.538 100.291 267.855 100.462 267.975C100.635 268.094 100.529 267.741 100.559 267.571C100.842 267.703 101.058 268.094 101.074 268.499C101.259 268.454 100.966 268.065 101.111 268.003C101.599 268.749 102.147 268.585 102.426 269.573C102.66 269.652 102.37 269.344 102.492 269.259C102.613 269.174 102.451 269.458 102.58 269.617C103.015 269.645 103.475 269.775 103.626 270.387L103.595 270.259L103.596 270.258C104.12 270.561 104.603 271.063 104.986 271.701C105.289 271.626 105.306 272.271 105.535 271.971C105.727 272.248 105.421 272.161 105.497 272.468C105.573 272.774 105.799 272.393 105.967 272.351C105.955 272.734 106.24 272.446 106.235 273.071C106.335 273.046 106.165 272.789 106.275 272.655C106.384 272.52 106.344 272.936 106.407 273.19C106.514 272.541 106.565 273.395 106.744 273.107C106.818 273.302 106.869 273.51 106.895 273.719C106.979 273.698 107.03 273.686 106.993 273.396C107.3 273.7 108.113 274.392 108.206 274.694C108.764 275.151 109.394 275.537 109.753 276.26C110.669 277.008 111.728 277.612 112.623 278.42C112.814 278.616 112.885 278.978 113.234 278.945C113.304 279.226 113.421 279.197 113.495 279.422C113.892 279.573 114.264 279.925 114.541 280.408C117.471 282.878 120.07 285.456 122.759 288.039C122.102 285.21 121.325 282.408 120.433 279.653C120.585 279.47 120.802 279.416 121.021 279.507C120.818 278.041 120.389 276.955 120.06 275.63L120.228 275.588C120.108 275.104 119.513 275.223 119.412 274.599C119.597 274.336 119.775 274.698 119.849 274.49C119.922 274.283 119.622 273.572 119.429 273.295C119.236 273.018 119.614 273.249 119.525 272.891C119.888 273.208 119.913 273.662 120.349 273.987C121.98 275.317 124.053 277.429 125.837 278.802C126.026 278.918 125.881 278.547 126.051 278.587C127.55 279.42 129.01 280.485 130.402 281.76C130.402 281.76 130.529 282.271 130.306 282.164C130.64 282.433 130.876 282.809 131.251 282.959C131.015 282.368 130.644 282.596 130.466 282.017C131.104 281.859 131.71 283.225 132.334 283.369C132.469 283.336 132.416 283.7 132.467 283.905C132.517 284.109 132.435 283.777 132.51 283.65C132.796 283.579 132.637 284.161 132.649 284.211C132.662 284.262 132.605 284.033 132.689 283.795C132.74 283.999 132.765 284.101 132.994 284.018L133.03 284.523C133.03 284.523 132.979 284.318 133.071 284.187C133.163 284.057 133.289 284.351 133.275 284.651C133.527 284.588 133.75 284.695 133.815 285.248L133.815 285.246C133.892 285.229 133.936 285.124 133.916 285.006C135.419 286.611 137.863 288.495 139.778 290.323C141.051 290.495 141.688 292.558 142.621 292.516C141.712 291.011 140.701 289.634 139.61 288.416L139.654 288.593Z" fill="#F5F5F5"/>
<path fill-rule="evenodd" clip-rule="evenodd" d="M134.465 287.656C134.118 287.336 133.7 287.088 133.599 286.679C133.674 286.985 133.733 286.645 133.766 286.637L133.768 286.639C133.957 287.03 134.196 287.377 134.465 287.656Z" fill="#F5F5F5"/>
<path fill-rule="evenodd" clip-rule="evenodd" d="M87.535 259.694C87.472 259.44 87.1971 259.479 87.2699 259.055C87.3662 259.082 87.4567 259.177 87.5109 259.305C87.5639 259.434 87.5725 259.579 87.535 259.694L87.535 259.694Z" fill="#F5F5F5"/>
<path fill-rule="evenodd" clip-rule="evenodd" d="M89.7232 304.723C89.891 304.899 90.1669 305.074 90.1328 305.298C89.8708 305.174 89.831 306.022 89.4615 305.464L89.7232 304.723Z" fill="#F5F5F5"/>
<path fill-rule="evenodd" clip-rule="evenodd" d="M101.845 377.858C101.751 377.326 101.817 376.806 102.027 376.433C101.806 376.304 101.616 376.057 101.501 375.751C101.612 374.035 101.439 372.225 100.993 370.462C102.675 366.959 101.853 362.775 101.907 359.757C101.892 359.192 102.118 358.811 102.095 358.356C101.957 356.792 100.128 355.81 99.1567 354.481C85.3601 362.257 71.6436 370.286 58.0728 378.899L57.247 378.155C56.5921 378.318 56.1685 379.56 55.2318 378.654C55.2885 378.452 55.3284 378.251 55.1054 378.144C55.187 377.61 55.9454 377.936 55.6336 377.038C55.4329 377.955 54.4913 377.321 54.2164 376.713C54.9705 374.793 56.5514 376.135 57.4443 374.56C57.9954 373.692 57.8669 372.018 58.0711 370.614C58.3153 368.793 59.0372 367.315 59.1112 365.455C57.7609 368.498 56.8345 371.164 55.6315 374.44L55.6304 374.44C54.0553 375.843 52.8984 377.975 52.301 380.572C51.3532 379.914 51.9091 378.99 51.963 378.49C52.3416 376.418 54.4563 374.163 55.6118 371.196C56.5036 368.647 57.2891 366.004 57.9639 363.276C59.9992 358.033 61.8825 350.31 63.9794 344.376C60.2531 345.597 56.7287 347.634 53.0198 348.851C52.7718 349.075 52.4317 348.996 52.2898 349.574C52.1047 349.619 51.8212 349.338 51.607 349.337C49.2715 351.133 46.5484 351.294 44.1902 352.934C42.6783 352.659 41.6567 354.292 40.1258 353.94L40.1254 353.939C37.8905 355.599 35.3317 356.463 32.6245 356.473C34.1349 354.799 36.1934 355.264 37.5633 352.947L37.5626 352.949C35.3351 353.55 33.2668 354.702 31.4377 356.36C31.8723 356.604 32.1153 356.004 32.6182 356.448C31.2049 357.695 29.4908 358.259 27.6739 358.078C27.4267 359.169 26.7214 359.344 26.2293 358.436C27.3408 355.724 29.2255 354.121 30.2527 351.862C37.5266 342.723 44.7083 331.847 51.7088 322.18L51.7072 322.179C53.0024 319.737 54.5165 317.572 56.2245 315.727C57.8004 315.739 59.354 315.59 60.8725 315.28C60.6074 314.992 60.4875 314.508 60.5883 314.132C63.1124 313.042 65.7915 312.462 68.557 312.402C70.5326 311.703 72.5631 311.2 74.6365 310.896C78.6963 309.134 83.0317 308.288 87.5098 308.384C87.9814 307.482 88.7464 307.834 89.347 307.523C89.265 307.192 89.4849 306.785 89.6208 306.4C90.1687 306.453 89.9801 306.987 90.3245 307.443C90.9795 307.281 91.7729 306.815 92.4778 307.858C92.6421 308.522 92.1256 308.595 92.1575 309.156C92.8414 314.076 90.4701 319.403 89.0212 324.634L89.0205 324.636C92.0108 324.028 94.9101 323.047 97.6886 321.704C99.0137 321.185 100.289 320.516 101.508 319.702C103.603 319.304 105.594 318.482 107.428 317.261C107.595 317.22 107.866 317.666 108.001 317.418C112.775 315.098 117.648 313.54 122.352 311.155C122.79 311.56 122.646 311.624 123.061 311.791C124.883 311.161 126.657 310.37 128.374 309.42C129.47 309.96 130.345 308.093 131.366 309.627C131.165 310.544 130.664 310.099 130.386 310.708C130.861 310.97 130.575 311.474 130.67 311.856L130.671 311.856C128.389 316.927 126.654 322.557 125.512 328.595C127.591 327.753 129.61 326.72 131.555 325.5C132.974 324.824 135.036 324.151 136.862 323.104C136.928 322.87 136.619 322.703 136.704 322.467C137.829 322.838 138.623 321.721 139.565 321.352C140.172 321.715 139.799 322.295 140.332 322.65C142.099 321.508 144.086 321.179 145.865 320.088L146.442 320.621C151.823 318.883 157.071 316.608 162.326 314.359C162.104 313.465 163.091 313.493 163.35 314.105C162.786 315.571 161.834 315.185 161.141 316.413C161.897 316.443 162.368 315.323 163.345 316.246C162.453 318.471 159.806 318.585 159.059 321.397L159.06 321.397C158.975 321.266 158.857 321.203 158.751 321.229C158.646 321.256 158.571 321.366 158.556 321.521C158.383 322.188 158.201 321.961 158.166 322.538C157.312 322.398 156.385 323.98 155.969 324.462C156.526 324.838 156.636 323.268 157.187 323.619C156.079 325.476 154.682 326.925 153.074 327.888C150.385 330.639 147.985 333.4 145.336 336.736L144.953 337.779C140.194 342.531 135.826 349.436 130.852 354.186C130.308 355.296 129.489 356.528 128.69 355.534C129.436 352.641 131.732 351.91 132.73 349.388C130.849 350.504 128.878 353.051 127.2 353.763C121.849 359.366 115.424 363.8 110.174 371.031C109.502 371.197 109.003 372.133 108.285 372.04C106.838 373.4 105.173 374.951 103.75 376.548C103.126 377.054 102.79 378.357 101.847 377.858L101.845 377.858ZM106.663 370.248C115.478 362.65 123.478 354.575 131.564 345.478C133.732 344.373 135.474 341.477 137.656 340.423L137.656 340.424C139.976 337.678 142.415 335.13 144.965 332.793C146.087 331.054 147.421 329.618 148.919 328.537C149.754 326.651 151.027 326.823 151.646 325.153C151.982 324.853 151.959 325.482 152.251 325.004C153.565 323.194 154.975 321.534 156.475 320.033C157.237 320.305 156.482 320.924 156.958 321.267L156.96 321.267C157.866 320.598 158.63 319.635 159.199 318.436C157.362 318.585 155.608 319.146 153.997 320.104C152.245 320.255 150.583 320.85 149.084 321.863C145.138 323.06 141.341 324.778 137.736 327.002C134.852 327.23 132.524 329.782 129.427 329.44L129.426 329.438C128.311 330.324 127.068 330.916 125.743 331.191C125.599 331.688 125.299 331.626 125.209 332.271C123.137 331.54 121.665 333.149 119.884 333.59L119.306 333.057C121.805 327.023 125.586 319.614 128.265 312.509C124.615 312.168 120.921 314.597 117.229 315.242L117.229 315.24C116.969 315.631 116.652 315.938 116.295 316.147C114.067 317.018 111.92 318.138 109.869 319.499C109.651 319.553 109.306 319.097 109.088 319.151C107.458 319.771 106.058 320.74 104.436 321.385C101.191 322.676 97.663 324.985 94.2511 326.181C93.2775 326.423 92.2299 327.088 91.0186 327.524L91.0179 327.526C89.8516 328.395 88.475 328.736 87.0379 328.512C86.8329 329.05 87.0758 328.665 87.3495 328.977L87.3479 328.975C85.9274 329.912 84.3543 330.449 82.6959 330.562C82.2249 329.162 83.2624 326.874 83.6835 325.552C84.2427 323.708 85.2517 322.455 85.0769 320.74L85.0764 320.738C86.4169 317.209 87.4935 313.433 88.2912 309.463C86.2483 309.781 84.3757 310.785 82.3112 310.945C81.8183 312.122 80.4975 311.394 80.3108 312.658C79.8926 312.41 80.3382 311.975 79.9012 312.083L79.9023 312.083C77.9108 312.833 75.8499 313.344 73.7385 313.61C68.6427 316.015 63.3679 317.872 57.9485 319.171C57.5955 319.041 57.0515 318.717 57.2272 318.132C57.1101 318.161 56.6266 318.443 56.6666 318.027C55.9449 318.206 55.8021 319.216 55.2451 320.275C54.0264 322.554 52.2803 324.502 51.0539 326.458C50.6927 326.873 51.2055 327.07 51.0396 327.41C50.8738 327.749 50.2863 327.245 50.0156 327.663C44.5127 336.608 37.7179 342.786 32.4129 353.685L32.4125 353.683C33.1781 353.661 33.8642 353.254 34.3542 352.526C34.8542 352.672 35.0867 351.884 35.6312 352.21L35.6301 352.21C39.5901 349.552 43.7512 347.39 48.0758 345.743C48.3945 345.664 48.4216 344.764 48.9612 345.361C52.3802 342.537 56.2971 341.729 59.7796 339.161C61.4471 338.584 63.0285 337.73 64.4965 336.612C64.6134 336.366 64.9214 336.887 65.0699 336.769L65.0695 336.767C66.5208 335.322 68.1549 334.233 69.9207 333.535C70.6644 334.163 70.2935 335.041 70.6568 335.789C70.301 336.582 69.6367 336.204 69.2609 337.353C69.5825 337.572 69.7811 337.224 70.1744 337.803C69.9359 338.999 69.3287 338.636 68.8525 338.943C65.6541 349.781 61.936 361.83 59.1305 373.03C69.2966 367.942 79.0444 361.521 89.1592 356.659C89.5786 356.555 90.1582 356.737 90.5661 356.581L90.5665 356.583C92.6308 355.408 94.7805 354.468 97.0013 353.771C99.1624 351.556 101.857 351.782 104.046 349.318L104.044 349.318C104.528 349.376 104.989 349.261 105.388 348.985C105.604 348.201 106.123 347.341 106.069 346.624C106.287 346.57 106.614 346.95 106.914 347.227C106.83 347.825 106.868 348.483 107.026 349.121C105.33 355.011 104.675 361.725 103.037 367.491C103.653 369.478 102.651 371.838 102.747 373.952L102.749 373.954C104.252 373.13 105.579 371.874 106.662 370.25L106.663 370.248Z" fill="#DF5000"/>
</svg>
