<svg width="49" height="48" viewBox="0 0 49 48" fill="none" xmlns="http://www.w3.org/2000/svg">
<path d="M41.8279 10.8305C41.7024 10.8599 41.5847 10.9154 41.4821 10.9936C41.3157 11.1269 41.1562 11.2685 41.0039 11.4182C40.172 12.1892 39.3415 12.9655 38.5116 13.7464C38.4541 13.8 38.3897 13.8441 38.3282 13.8948L38.2959 13.8595C38.3514 13.802 38.4054 13.7435 38.4629 13.6885L40.5843 11.6708C40.6536 11.6104 40.7189 11.5453 40.7794 11.4757C40.903 11.3338 40.9039 11.1227 40.7817 10.9795C40.6594 10.8367 40.4506 10.8046 40.2914 10.9047C40.2208 10.9491 40.1554 11.0011 40.0959 11.0599C39.9279 11.2113 39.7622 11.3655 39.553 11.5568C39.635 11.1799 39.5978 10.9047 39.2154 10.8089C39.2203 10.7759 39.2271 10.7432 39.2369 10.7112C39.2971 10.5392 39.2304 10.3483 39.0758 10.2516C38.9123 10.1525 38.7025 10.18 38.5701 10.3179C38.4936 10.3921 38.4217 10.4706 38.3544 10.5533C38.0488 10.8939 37.7588 11.2485 37.4379 11.5734C35.9823 13.0505 34.5278 14.5285 33.0546 15.988C30.3962 18.6239 27.7771 21.2976 25.2592 24.0694C25.2203 24.1122 25.1752 24.1524 25.1255 24.2011L25.0007 24.089C25.0739 24.007 25.1334 23.9387 25.1958 23.8713C26.5363 22.407 27.8562 20.9113 29.2238 19.4665C31.7298 16.8209 34.2631 14.2017 36.7868 11.5737C36.8969 11.4587 37.0261 11.3619 37.145 11.2553V11.255C37.1937 11.2194 37.2359 11.1753 37.2699 11.1252C37.3987 10.8994 37.5896 10.7154 37.8194 10.5941C37.9164 10.5464 37.99 10.4614 38.0233 10.3584C38.0563 10.2558 38.0462 10.1437 37.9952 10.0486C37.9442 9.95312 37.8573 9.88186 37.7537 9.85113C37.65 9.82008 37.5382 9.83217 37.4435 9.88447C37.3451 9.94167 37.2529 10.01 37.1692 10.0875C36.4302 10.7131 35.7049 11.3567 34.9531 11.9656C32.42 13.9994 30.011 16.1834 27.7399 18.5065C24.5699 21.7738 21.4579 25.0941 18.5454 28.5946C18.4987 28.6512 18.4477 28.7022 18.3872 28.7656C18.2241 28.6054 18.0787 28.4609 17.9312 28.3184C15.4905 25.9431 13.1195 23.4919 10.8886 20.9126C10.7442 20.7456 10.5889 20.5874 10.4346 20.4295C10.3712 20.3635 10.3009 20.3047 10.2248 20.2537C10.1365 20.1854 10.0241 20.1559 9.91359 20.1723C9.80311 20.1883 9.70407 20.2488 9.63903 20.3396C9.58052 20.4305 9.56123 20.5413 9.58575 20.6469C9.61026 20.7521 9.67629 20.843 9.76879 20.8989C9.87731 20.9826 9.97896 21.0744 10.0734 21.1735C10.3009 21.4206 10.5245 21.6703 10.7422 21.9262C11.8758 23.2539 13.0011 24.5885 14.2109 25.8486C15.3356 27.0201 16.463 28.1883 17.5936 29.3533C17.6502 29.4108 17.7021 29.4732 17.7626 29.5396L17.5743 29.7416L17.574 29.7419C17.5416 29.6844 17.505 29.6295 17.4645 29.5778C17.1033 29.1938 16.7415 28.812 16.3789 28.4328C15.0797 27.0662 13.7774 25.709 12.5628 24.2692C11.9683 23.5645 11.4012 22.8362 10.8193 22.1213C10.7465 22.0236 10.6628 21.9347 10.5696 21.8566C10.4611 21.7683 10.3134 21.7448 10.1826 21.7948C10.0522 21.8451 9.95838 21.9615 9.93681 22.0998C9.927 22.1455 9.92504 22.1975 9.91327 22.2841C9.75899 22.1014 9.63315 21.9599 9.51483 21.8125C9.30106 21.5441 9.09219 21.2725 8.88136 21.0022L8.88169 21.0025C8.78396 20.8364 8.57706 20.7698 8.40087 20.8475C8.22437 20.9253 8.13448 21.1228 8.19135 21.3071C8.20116 21.3578 8.21783 21.4049 8.23025 21.4565C7.87005 21.601 7.82788 21.6595 7.82134 22.0266C7.77101 21.9929 7.71903 21.9618 7.6651 21.9337C7.54384 21.87 7.39708 21.8791 7.28463 21.9573C7.17219 22.0354 7.1127 22.1697 7.13002 22.3057C7.14931 22.4172 7.19637 22.5218 7.26697 22.6103C7.4827 22.8963 7.71216 23.1725 7.93672 23.452C8.60974 24.2885 9.28309 25.1259 9.95644 25.965C9.99272 26.0097 10.0218 26.0627 10.0542 26.1094L10.0123 26.1389C9.94598 26.0656 9.88061 25.9924 9.8172 25.9202C9.22296 25.287 8.62773 24.6536 8.03152 24.0204L8.0312 24.0201C7.94229 23.9168 7.84423 23.8217 7.73833 23.7361C7.63863 23.655 7.5056 23.6282 7.38237 23.6642C7.25914 23.7005 7.16174 23.7946 7.12153 23.9165C7.10062 23.9724 7.07283 24.025 7.03851 24.0737C6.85906 24.2345 6.83683 24.5078 6.98752 24.6954C7.07022 24.8239 7.16206 24.9455 7.26307 25.0596C7.66544 25.5283 8.07239 25.9927 8.47639 26.4595C8.53 26.5209 8.57413 26.5873 8.62283 26.6448L8.45384 26.8939C8.4339 26.9021 8.41298 26.9079 8.39141 26.9115C8.21719 26.9187 8.06748 27.0367 8.01944 27.2044C7.97727 27.3711 8.03415 27.5473 8.16587 27.6574C8.65388 28.1778 9.16054 28.6903 9.63023 29.2293C11.2714 31.1055 12.929 32.9673 14.7068 34.7216C14.7447 34.7579 14.7761 34.7998 14.8199 34.8504C14.7682 34.9295 14.7143 35.0018 14.6685 35.0789C14.5133 35.3404 14.3394 35.5944 14.2106 35.8686C14.0328 36.2465 14.2204 36.5148 14.6371 36.5207H14.6375C14.7221 36.6031 14.8169 36.6743 14.9195 36.7325C15.0359 36.7606 15.1552 36.7747 15.2749 36.7744C15.1693 36.8819 15.0797 36.9695 15.0016 37.0535V37.0538C14.9251 37.128 14.8532 37.2071 14.7859 37.2898C14.6097 37.4846 14.5999 37.7778 14.7623 37.9841C14.9437 38.1861 15.2458 38.2246 15.4723 38.0749C15.589 38.0034 15.6968 37.9184 15.7933 37.821C16.0861 37.5379 16.3633 37.248 16.6474 36.961C16.7 36.9084 16.7559 36.8574 16.8193 36.7969C16.8905 36.8613 16.952 36.9179 17.0144 36.9718C17.1295 37.0695 17.239 37.1787 17.3619 37.2647H17.3622C17.4511 37.3667 17.5799 37.4255 17.7152 37.4265C17.8509 37.4274 17.98 37.3702 18.0705 37.2696C18.1614 37.1689 18.2042 37.0342 18.1892 36.8996C18.1738 36.7652 18.1016 36.6436 17.9908 36.5655C17.893 36.458 17.7829 36.3645 17.6803 36.2609C17.6446 36.22 17.6123 36.1769 17.5828 36.1311C17.7048 36.1056 17.7352 36.1984 17.7966 36.2288C17.9051 36.2805 18.0163 36.3704 18.1248 36.3674H18.1245C18.4628 36.3972 18.7965 36.2726 19.0325 36.0288C19.2891 35.7271 19.5607 35.4372 19.8262 35.1433C19.8749 35.0887 19.9239 35.0348 19.9716 34.9851C20.2236 35.0828 20.4675 35.192 20.6714 34.9684C20.896 34.7204 20.7437 34.4697 20.6178 34.2088C20.6548 34.1591 20.6852 34.116 20.7156 34.0751C22.3663 32.0855 24.0601 30.1351 25.8732 28.2899C28.7842 25.3249 31.7306 22.3962 34.799 19.5917C35.2825 19.1707 35.7172 18.6967 36.0944 18.1779C36.1493 18.1051 36.1967 18.0263 36.2359 17.9439C36.2875 17.84 36.2833 17.7167 36.2241 17.617C36.165 17.517 36.0591 17.4543 35.943 17.4497H35.7711C35.8639 17.352 35.9195 17.2974 35.979 17.2408C37.8905 15.4356 39.8033 13.6303 41.7174 11.8257C41.836 11.7194 41.9638 11.6236 42.0992 11.5396C42.2678 11.4534 42.3502 11.2582 42.2943 11.0768C42.2306 10.8826 42.0243 10.7735 41.8279 10.83L41.8279 10.8305ZM14.7508 33.4484C13.984 32.7882 13.2796 32.0583 12.6471 31.2686C13.3511 31.9733 14.0555 32.6793 14.7596 33.386C14.7684 33.3948 14.7547 33.4259 14.7508 33.4484ZM18.1979 33.7841C18.1002 33.7508 18.0652 33.7011 18.1345 33.6181C18.2038 33.5351 18.2623 33.4736 18.3404 33.3857L18.4839 33.5145L18.1979 33.7841ZM32.3879 18.5021C29.7073 21.2357 27.1525 24.0824 24.6004 26.9343C23.0952 28.6144 21.6122 30.315 20.0285 31.9249C19.9651 31.9893 19.9085 32.0615 19.8334 32.1514L19.6382 31.9239C19.7046 31.8458 19.767 31.7726 19.8334 31.7003C22.2172 28.9952 24.6745 26.3565 27.1433 23.7284C30.2433 20.4281 33.4266 17.2091 36.6942 14.0712C37.4751 13.3243 38.2786 12.5971 39.0741 11.8629C39.1352 11.8152 39.2006 11.7733 39.2696 11.7377L39.3039 11.7844C39.2356 11.8508 39.1682 11.9191 39.098 11.9845C36.8161 14.112 34.5719 16.2762 32.3881 18.5022L32.3879 18.5021Z" fill="#DF5000"/>
</svg>
