<svg width="154" height="50" viewBox="0 0 154 50" fill="none" xmlns="http://www.w3.org/2000/svg">
<path d="M89.4013 25.7916H84.216V17.6434H77.0143V25.7916H71.8291V5.77834H77.0143V13.6407H84.216V5.77834H89.4013V25.7916Z" fill="#151515"/>
<path d="M105.835 11.2105C105.835 10.0669 105.259 9.49509 104.106 9.49509H99.2091C98.0568 9.49509 97.4807 10.0669 97.4807 11.2105V20.3594C97.4807 21.5031 98.0568 22.0749 99.2091 22.0749H104.106C105.259 22.0749 105.835 21.5031 105.835 20.3594V11.2105ZM111.02 20.3594C111.02 22.3608 110.559 23.8189 109.637 24.7338C108.735 25.6296 107.275 26.0775 105.259 26.0775H98.0568C96.0403 26.0775 94.5712 25.6296 93.6494 24.7338C92.7467 23.8189 92.2954 22.3608 92.2954 20.3594V11.2105C92.2954 9.20919 92.7467 7.76061 93.6494 6.86477C94.5712 5.94988 96.0403 5.49243 98.0568 5.49243H105.259C107.275 5.49243 108.735 5.94988 109.637 6.86477C110.559 7.76061 111.02 9.20919 111.02 11.2105V20.3594Z" fill="#151515"/>
<path d="M126.877 5.77834H132.062V20.3594C132.062 22.3608 131.601 23.8189 130.68 24.7338C129.777 25.6296 128.317 26.0775 126.301 26.0775H119.675C117.659 26.0775 116.19 25.6296 115.268 24.7338C114.365 23.8189 113.914 22.3608 113.914 20.3594V5.77834H119.099V20.3594C119.099 21.5031 119.675 22.0749 120.828 22.0749H125.149C126.301 22.0749 126.877 21.5031 126.877 20.3594V5.77834Z" fill="#151515"/>
<path d="M135.519 5.77834H147.618C149.634 5.77834 151.094 6.23578 151.997 7.15068C152.918 8.04651 153.379 9.49509 153.379 11.4964V14.0696C153.379 15.6516 153.111 16.8809 152.573 17.7577C152.054 18.6345 151.219 19.2158 150.067 19.5017L153.667 25.7916H148.05L144.737 19.7876H140.704V25.7916H135.519V5.77834ZM148.194 11.4964C148.194 10.3528 147.618 9.781 146.466 9.781H140.704V15.785H146.466C147.618 15.785 148.194 15.2132 148.194 14.0696V11.4964Z" fill="#151515"/>
<path d="M87.9909 30.3452L91.3347 42.8846L94.2606 30.3452H99.6943L94.3999 49.8509H89.1055L85.7617 37.7295L82.4179 49.8509H77.1235L71.8291 30.3452H77.2628L80.1887 42.8846L83.5325 30.3452H87.9909Z" fill="#151515"/>
<path d="M103.196 49.8509H97.7622L105.147 30.3452H110.72L118.104 49.8509H112.67L111.416 46.3677H104.45L103.196 49.8509ZM105.704 42.7452H110.162L107.933 36.1969L105.704 42.7452Z" fill="#151515"/>
<path d="M124.512 49.8509H119.496V30.3452H124.512V38.0081H127.02L131.367 30.3452H136.661L131.199 39.9587L136.633 49.8509H131.339L127.02 41.9093H124.512V49.8509Z" fill="#151515"/>
<path d="M153.792 49.8509H138.327V30.3452H153.792V34.2463H143.343V38.0081H151.563V41.9093H143.343V45.9497H153.792V49.8509Z" fill="#151515"/>
<path fill-rule="evenodd" clip-rule="evenodd" d="M24.7451 16.799C25.7577 17.8339 25.7396 19.4938 24.7047 20.5064L8.17382 36.6805H22.8712C24.3191 36.6805 25.4929 37.8542 25.4929 39.3022C25.4929 40.7501 24.3191 41.9239 22.8712 41.9239H3.23613C0.341809 41.9239 -1.09132 38.4099 0.977476 36.3858L21.0377 16.7585C22.0726 15.7459 23.7325 15.764 24.7451 16.799Z" fill="#151515"/>
<path fill-rule="evenodd" clip-rule="evenodd" d="M54.0518 6.61597C55.0644 7.65092 55.0463 9.3108 54.0113 10.3234L37.4805 26.4975H52.1778C53.6257 26.4975 54.7995 27.6713 54.7995 29.1192C54.7995 30.5671 53.6257 31.7409 52.1778 31.7409H32.5428C29.6484 31.7409 28.2153 28.2269 30.2841 26.2028L50.3443 6.57553C51.3793 5.56292 53.0391 5.58102 54.0518 6.61597Z" fill="#151515"/>
<path fill-rule="evenodd" clip-rule="evenodd" d="M52.1039 35.5026C53.5518 35.5026 54.7256 36.6763 54.7256 38.1243L54.7256 47.3193C54.7256 48.7672 53.5518 49.941 52.1039 49.941C50.6559 49.941 49.4822 48.7672 49.4822 47.3193L49.4822 38.1243C49.4822 36.6763 50.6559 35.5026 52.1039 35.5026Z" fill="#151515"/>
<path fill-rule="evenodd" clip-rule="evenodd" d="M6.68945 11.023C5.93066 9.7898 6.31522 8.17498 7.54839 7.41618C10.0187 5.89616 12.8417 5.04433 15.7404 4.94424C18.6392 4.84415 21.5142 5.49925 24.0834 6.84527C25.366 7.5172 25.861 9.10165 25.1891 10.3842C24.5172 11.6668 22.9327 12.1618 21.6502 11.4899C19.886 10.5656 17.9118 10.1158 15.9214 10.1845C13.9309 10.2533 11.9925 10.8382 10.2962 11.8819C9.06307 12.6407 7.44825 12.2562 6.68945 11.023Z" fill="#151515"/>
<circle cx="63.0625" cy="38.2447" r="2.64457" fill="#151515"/>
<circle cx="63.2666" cy="23.3943" r="2.64457" fill="#151515"/>
</svg>
