<svg width="155" height="50" viewBox="0 0 155 50" fill="none" xmlns="http://www.w3.org/2000/svg">
<path d="M90.1259 25.8212H84.9406V17.6729H77.7389V25.8212H72.5537V5.80788H77.7389V13.6702H84.9406V5.80788H90.1259V25.8212Z" fill="#F5F5F5"/>
<path d="M106.559 11.2401C106.559 10.0964 105.983 9.52463 104.831 9.52463H99.9337C98.7814 9.52463 98.2053 10.0964 98.2053 11.2401V20.389C98.2053 21.5326 98.7814 22.1044 99.9337 22.1044H104.831C105.983 22.1044 106.559 21.5326 106.559 20.389V11.2401ZM111.744 20.389C111.744 22.3903 111.284 23.8484 110.362 24.7633C109.459 25.6592 108 26.1071 105.983 26.1071H98.7814C96.7649 26.1071 95.2958 25.6592 94.374 24.7633C93.4714 23.8484 93.02 22.3903 93.02 20.389V11.2401C93.02 9.23873 93.4714 7.79015 94.374 6.89431C95.2958 5.97942 96.7649 5.52197 98.7814 5.52197H105.983C108 5.52197 109.459 5.97942 110.362 6.89431C111.284 7.79015 111.744 9.23873 111.744 11.2401V20.389Z" fill="#F5F5F5"/>
<path d="M127.602 5.80788H132.787V20.389C132.787 22.3903 132.326 23.8484 131.404 24.7633C130.502 25.6592 129.042 26.1071 127.026 26.1071H120.4C118.384 26.1071 116.914 25.6592 115.993 24.7633C115.09 23.8484 114.639 22.3903 114.639 20.389V5.80788H119.824V20.389C119.824 21.5326 120.4 22.1044 121.552 22.1044H125.873C127.026 22.1044 127.602 21.5326 127.602 20.389V5.80788Z" fill="#F5F5F5"/>
<path d="M136.244 5.80788H148.343C150.359 5.80788 151.819 6.26532 152.721 7.18022C153.643 8.07605 154.104 9.52463 154.104 11.526V14.0991C154.104 15.6811 153.835 16.9105 153.297 17.7873C152.779 18.664 151.943 19.2454 150.791 19.5313L154.392 25.8212H148.775L145.462 19.8172H141.429V25.8212H136.244V5.80788ZM148.919 11.526C148.919 10.3823 148.343 9.81054 147.19 9.81054H141.429V15.8145H147.19C148.343 15.8145 148.919 15.2427 148.919 14.0991V11.526Z" fill="#F5F5F5"/>
<path d="M88.7155 30.3748L92.0594 42.9141L94.9852 30.3748H100.419L95.1245 49.8804H89.8301L86.4863 37.759L83.1425 49.8804H77.8481L72.5537 30.3748H77.9874L80.9133 42.9141L84.2571 30.3748H88.7155Z" fill="#F5F5F5"/>
<path d="M103.921 49.8804H98.4869L105.871 30.3748H111.444L118.828 49.8804H113.395L112.141 46.3972H105.174L103.921 49.8804ZM106.428 42.7748H110.887L108.658 36.2264L106.428 42.7748Z" fill="#F5F5F5"/>
<path d="M125.236 49.8804H120.221V30.3748H125.236V38.0377H127.744L132.091 30.3748H137.386L131.924 39.9883L137.358 49.8804H132.063L127.744 41.9388H125.236V49.8804Z" fill="#F5F5F5"/>
<path d="M154.517 49.8804H139.051V30.3748H154.517V34.2759H144.067V38.0377H152.287V41.9388H144.067V45.9793H154.517V49.8804Z" fill="#F5F5F5"/>
<path fill-rule="evenodd" clip-rule="evenodd" d="M25.4697 16.8285C26.4823 17.8634 26.4642 19.5233 25.4293 20.5359L8.89843 36.71H23.5958C25.0437 36.71 26.2175 37.8838 26.2175 39.3317C26.2175 40.7796 25.0437 41.9534 23.5958 41.9534H3.96074C1.06642 41.9534 -0.366712 38.4394 1.70209 36.4153L21.7623 16.7881C22.7972 15.7754 24.4571 15.7935 25.4697 16.8285Z" fill="#F5F5F5"/>
<path fill-rule="evenodd" clip-rule="evenodd" d="M54.7764 6.64564C55.789 7.68059 55.7709 9.34046 54.7359 10.3531L38.2051 26.5271H52.9024C54.3503 26.5271 55.5241 27.7009 55.5241 29.1488C55.5241 30.5968 54.3503 31.7706 52.9024 31.7706H33.2674C30.3731 31.7706 28.9399 28.2566 31.0087 26.2324L51.0689 6.60519C52.1039 5.59258 53.7637 5.61069 54.7764 6.64564Z" fill="#F5F5F5"/>
<path fill-rule="evenodd" clip-rule="evenodd" d="M52.8285 35.5322C54.2764 35.5322 55.4502 36.706 55.4502 38.1539L55.4502 47.3489C55.4502 48.7968 54.2764 49.9706 52.8285 49.9706C51.3806 49.9706 50.2068 48.7968 50.2068 47.3489L50.2068 38.1539C50.2068 36.706 51.3806 35.5322 52.8285 35.5322Z" fill="#F5F5F5"/>
<path fill-rule="evenodd" clip-rule="evenodd" d="M7.41406 11.0525C6.65526 9.81934 7.03983 8.20452 8.273 7.44572C10.7433 5.9257 13.5663 5.07387 16.465 4.97378C19.3638 4.8737 22.2388 5.52879 24.8081 6.87481C26.0906 7.54675 26.5857 9.13119 25.9137 10.4138C25.2418 11.6963 23.6573 12.1914 22.3748 11.5194C20.6106 10.5952 18.6364 10.1454 16.646 10.2141C14.6555 10.2828 12.7171 10.8677 11.0209 11.9115C9.78768 12.6703 8.17286 12.2857 7.41406 11.0525Z" fill="#F5F5F5"/>
<circle cx="63.7876" cy="38.2742" r="2.64457" fill="#F5F5F5"/>
<circle cx="63.9908" cy="23.4239" r="2.64457" fill="#F5F5F5"/>
</svg>
