<svg width="51" height="57" viewBox="0 0 51 57" fill="none" xmlns="http://www.w3.org/2000/svg">
<path d="M38.2163 9.46908C37.8394 7.39884 38.6826 5.83057 40.2703 4.61444C42.5143 2.89586 44.8139 1.28142 47.6982 0.771286C48.5513 0.565735 49.391 0.307844 50.2129 0C50.2448 0.469154 50.2419 0.940209 50.2034 1.40883C49.738 4.26327 49.9797 7.32551 47.9861 9.74839C47.378 10.4516 46.6577 11.0488 45.8545 11.5161C44.9676 12.0304 44.0301 12.4525 43.0571 12.7756C42.5033 12.9706 41.8476 12.8645 41.28 13.0344C40.6928 13.2447 40.1214 13.4978 39.5709 13.7914C40.0557 14.4271 40.4592 15.1208 40.7714 15.8569C41.3433 17.7411 41.7668 19.6676 42.0371 21.6185C42.2145 23.84 41.6188 26.055 40.3508 27.8878C37.8966 31.749 34.3689 34.5054 30.7474 37.1657C29.5589 37.9741 28.4379 38.8772 27.3949 39.8664C26.97 40.4478 26.7797 41.1683 26.8625 41.8838C27.1527 44.6616 26.606 47.4622 25.2923 49.9264C24.5172 51.2496 23.3533 52.3016 21.9593 52.9392C20.4761 53.7404 18.9655 53.6824 17.4753 53.9417C14.8112 54.4056 12.397 53.3289 10.0622 52.2388C9.19525 51.8339 8.84167 51.93 8.54957 52.7865C8.27979 53.5768 7.91056 54.3333 7.63364 55.1218C7.4376 55.7261 6.98654 56.2128 6.39888 56.454C5.81173 56.6957 5.1484 56.6667 4.58419 56.375C4.34581 56.0905 4.26207 55.7065 4.36103 55.3482C4.90203 53.8076 5.4849 52.2783 6.13967 50.7832C6.35283 50.4378 6.44134 50.0296 6.38995 49.627C6.33904 49.2245 6.15109 48.8519 5.85846 48.5707C3.26579 45.7244 1.88546 42.2572 1.08848 38.5568C0.607908 36.6174 0.31814 34.6357 0.223921 32.6396C0.163494 28.5928 0.350968 24.4865 2.46409 20.8947C3.70786 18.9814 5.14667 17.2033 6.75879 15.5885C8.14155 14.0112 9.66549 12.5628 11.3109 11.2615C14.4679 8.88298 17.7639 6.67996 21.7678 5.91148C22.0309 5.86295 22.2883 5.78682 22.5353 5.68451C26.1758 4.12903 29.7557 5.15874 33.2139 6.2179C34.5862 6.63804 35.6425 8.07924 36.8529 9.04189C37.2008 9.31833 37.5857 9.54719 37.9535 9.79795L38.2163 9.46908ZM38.9133 14.5826C36.717 16.6657 34.4888 18.7455 32.3205 20.8861C32.1597 21.2653 32.1392 21.6902 32.2629 22.0833C32.3657 22.7475 32.7759 23.4346 32.6726 24.0474C32.2672 26.4479 30.3049 27.8781 27.7194 28.1308C25.8971 28.3087 23.9382 26.0676 23.4452 24.5536C22.7106 22.2987 25.3627 19.1903 27.68 19.5428C28.0792 19.5771 28.4722 19.4291 28.7496 19.1403C30.728 16.3806 33.0575 13.8906 35.6798 11.7333C36.6971 10.9154 36.7975 10.1293 35.9553 9.13246C35.6551 8.78655 35.322 8.47108 34.9599 8.19035C32.6912 6.38991 29.9278 6.20671 27.2199 5.83178C25.2562 5.55962 23.4933 6.31664 21.6487 6.7677C17.9977 7.7317 14.6071 9.4951 11.7218 11.9308C9.59018 13.7189 7.57414 15.6397 5.68515 17.6819C3.7048 19.7389 2.1213 22.1122 1.68645 24.9956C1.03363 29.324 0.601606 33.6368 1.74497 38.0144C2.73895 42.1235 4.72781 45.9252 7.53706 49.0842C9.72059 51.4841 12.7538 52.9378 15.9922 53.1357C17.9953 53.2319 19.9942 52.8698 21.8366 52.078C24.2842 51.0978 25.2205 49.1474 25.7506 47.0135C26.1346 45.0032 26.2992 42.9572 26.2426 40.9112C26.2207 40.1066 26.6109 39.3462 27.277 38.8946C28.2538 38.1719 29.2721 37.4976 30.1947 36.7111C32.8864 34.4163 35.7445 32.2694 38.1545 29.7044C41.0651 26.6063 42.2813 22.8155 40.7901 18.5685C40.3167 17.2201 40.418 15.5785 38.913 14.5835L38.9133 14.5826ZM35.7388 13.5424C35.5632 13.6386 35.3962 13.7499 35.2402 13.875C33.9864 15.0951 32.7254 16.3079 31.4946 17.5512C29.1683 19.8113 27.1719 22.3888 25.565 25.2066C25.4865 25.5939 25.4803 25.9926 25.5469 26.3823C29.4747 22.3688 33.1574 18.6056 36.8188 14.8643C36.4501 14.4127 36.139 14.0311 35.7388 13.5424ZM26.8745 26.8926C27.6572 27.1552 28.5017 27.1728 29.2949 26.944C30.0886 26.7151 30.7933 26.2502 31.3162 25.6108C32.068 24.5378 32.008 23.3311 31.0217 22.0741C29.9435 23.4506 28.9081 24.8 27.837 26.1204C27.5439 26.4107 27.2213 26.6694 26.8745 26.8926ZM40.3062 10.764L40.713 11.0695L46.9338 2.679C44.0246 4.84486 41.0423 6.95423 40.3062 10.764ZM39.6358 9.42084L40.0802 9.39324C40.9114 6.35706 43.5003 4.76211 45.4745 2.62244C45.0519 2.58818 44.6275 2.66193 44.2416 2.83798C43.3885 3.32283 42.5997 3.92092 41.7451 4.40247C40.2035 5.27083 39.7133 6.79819 39.2618 8.32602C39.2932 8.71618 39.4222 9.09253 39.6358 9.42084ZM27.6649 20.5582C26.4697 20.2494 25.7365 20.6429 24.9038 21.9485C24.3066 22.8849 23.8989 23.8146 24.6992 24.969C25.7369 23.4254 26.6957 21.9999 27.6649 20.5582ZM7.71404 50.4108L7.26963 50.4294L5.33971 54.7987L5.75748 55.0209C7.37192 54.4319 7.41808 52.6866 8.11653 51.4391C8.2312 51.2354 7.86058 50.7605 7.71404 50.4108ZM47.9776 2.56964L42.2711 10.2759C45.0475 8.10056 47.0388 5.73433 47.9776 2.56964ZM39.6617 11.9421L38.1182 11.0961C37.5905 11.7618 37.1571 12.309 36.7241 12.8548C37.4469 14.0553 37.533 14.0629 38.4409 13.1103C38.7996 12.734 39.1917 12.3899 39.6617 11.9421ZM48.2706 6.6977L44.0245 11.1512C45.5766 11.2797 46.3356 10.2305 46.9659 8.93628C47.3785 8.08839 47.9147 7.30102 48.2706 6.6977ZM47.3423 6.79001L47.0159 6.54068C46.1899 7.41665 45.3643 8.29216 44.5383 9.16807L44.8519 9.4507C45.6822 8.56331 46.5126 7.67701 47.3423 6.79001Z" fill="#F5F5F5"/>
<path d="M11.694 17.1014C13.3608 16.9996 14.3452 17.7699 14.4608 19.2663C14.476 20.0286 14.2067 20.7689 13.7057 21.3433C13.2047 21.9176 12.5076 22.2844 11.7506 22.3729C10.3061 22.4443 8.87044 21.4717 8.96326 20.267C9.13788 18.0011 9.16122 17.2494 11.694 17.1014Z" fill="#F5F5F5"/>
<path d="M7.58063 29.5758C8.98945 29.5967 10.7609 31.036 10.7638 32.1617C10.7681 33.7562 9.2874 35.6342 8.03071 35.6285C7.1043 35.6447 6.21455 35.2669 5.5831 34.5889C4.95217 33.9108 4.63862 32.9963 4.72094 32.0733C4.75329 30.8528 6.2383 29.5558 7.58063 29.5758ZM5.7607 32.8369V32.8364C5.75832 33.3341 5.95816 33.8114 6.31407 34.1592C6.66998 34.5065 7.15197 34.6944 7.6492 34.6802C8.10122 34.7844 8.57656 34.7059 8.97057 34.4613C9.36502 34.2167 9.6467 33.8266 9.75423 33.375C10.1492 31.95 9.73615 31.1805 8.31581 30.5929C7.65063 30.3174 6.95302 30.1447 6.45824 31.0521C7.95233 30.581 9.57713 31.9147 9.33497 33.3345C9.26122 33.502 9.14132 33.6457 8.99001 33.748C7.97654 34.6882 6.78176 34.4027 5.76065 32.8363L5.7607 32.8369Z" fill="#F5F5F5"/>
<path d="M21.1217 14.5215C20.545 14.5834 19.9679 14.4078 19.5235 14.0348C19.0791 13.6622 18.8055 13.1241 18.7665 12.5454C18.7412 11.9335 18.8873 11.3269 19.1876 10.7935C19.4883 10.2601 19.9317 9.82092 20.468 9.52595C20.8777 9.20953 21.3696 9.01778 21.885 8.97353C22.4008 8.92927 22.918 9.03443 23.3757 9.27614C24.3644 9.95655 24.9449 11.089 24.9192 12.2889C24.9635 12.6734 24.8478 13.0593 24.599 13.3557C24.3506 13.6521 23.9909 13.8334 23.6045 13.8567C22.7628 14.0214 21.9329 14.2432 21.1217 14.5215ZM20.3666 13.4034L20.9124 13.2849C20.7011 12.5241 20.4898 11.7633 20.2786 11.0025L19.8123 11.1276L20.3666 13.4034ZM21.7907 12.8695C21.8035 11.1514 21.3386 10.2297 20.7353 10.4124L21.7907 12.8695ZM21.882 9.84625C22.2037 10.7351 22.4268 11.3522 22.6504 11.9698L22.9854 11.849C22.3269 11.3627 23.6925 10.1803 21.8815 9.84586L21.882 9.84625Z" fill="#F5F5F5"/>
<path d="M9.48443 42.3619C9.40021 42.0027 9.31552 41.6434 9.22987 41.278C10.6811 40.8269 11.9738 40.1608 13.417 41.1343C14.0161 41.5302 14.4714 42.1088 14.716 42.7839C14.9601 43.4596 14.9805 44.1952 14.774 44.8832C14.5204 45.5212 14.0484 46.048 13.4417 46.3701C12.835 46.6917 12.1342 46.7874 11.4638 46.6399C10.0682 46.3891 9.6034 45.2528 9.26551 44.1404C9.10564 43.6137 9.40825 42.9466 9.50436 42.3399C9.62427 42.4218 9.75702 42.4822 9.89739 42.5188C10.5288 41.9027 11.2497 42.0088 12.0128 42.1663C12.3316 42.1634 12.6471 42.1068 12.9468 41.9988C11.7568 41.0681 10.7811 41.1966 9.48443 42.3619ZM11.5347 45.5879L11.627 45.8695C12.5301 45.9128 13.6106 46.0594 13.9685 45.025C14.1074 44.227 14.0589 43.4072 13.8267 42.6312C13.4803 42.5322 13.1211 42.4861 12.7609 42.4937C12.8023 43.2188 12.8313 43.7317 12.8603 44.2442L13.1458 44.3132L13.5436 43.2164C14.2345 44.0582 14.1365 44.5516 13.2562 44.8733C12.6733 45.0869 12.1086 45.3481 11.5352 45.5875L11.5347 45.5879ZM11.0279 42.5455L10.6402 42.5307V42.5302C10.6126 43.1559 10.6249 43.7821 10.6778 44.4058C10.9437 44.5552 11.2368 44.6494 11.5399 44.6827C11.331 43.8111 11.1797 43.1782 11.0284 42.5449L11.0279 42.5455Z" fill="#F5F5F5"/>
</svg>
