<svg width="37" height="62" viewBox="0 0 37 62" fill="none" xmlns="http://www.w3.org/2000/svg">
<path d="M12.8242 30.8388C13.2957 30.2164 13.6902 29.5393 13.9985 28.8218C14.7645 26.2366 15.4373 23.6225 16.0992 21.008C16.6368 18.8849 17.1079 16.7448 17.6093 14.6127H17.6089C17.6802 14.0322 17.8244 13.4631 18.0385 12.9188C18.561 11.9462 18.2327 11.1346 17.8682 10.23C17.1012 8.32531 16.9603 6.43827 18.2522 4.63588C19.2713 3.21414 20.2173 1.73966 21.3907 0C21.6847 0.487231 21.9236 1.00586 22.102 1.54684C22.4631 3.65325 22.7772 5.76869 23.0779 7.88461C23.3643 9.90065 21.0528 12.4167 18.9811 12.2806C18.8741 12.9368 17.8939 13.8432 18.9354 14.1896C20.1545 14.595 19.5554 13.0562 20.0979 12.4386C21.168 13.3684 20.1526 14.3561 20.3424 15.4596C20.902 14.3248 21.3982 13.3237 21.8893 12.3193C22.4312 11.2116 22.8927 10.0558 23.5274 9.00426C24.2688 7.7762 24.9363 7.86279 26.2705 9.31687L29.3604 3.71421C30.9729 3.72896 31.1571 4.07631 30.4586 5.61465L30.4591 5.61513C30.1531 6.45969 29.9195 7.32847 29.7615 8.21255L30.1018 8.3258C30.7332 6.89309 31.3645 5.46051 31.9955 4.02781L32.241 4.12916C32.3095 5.63933 32.378 7.14962 32.4466 8.6598L32.9928 8.78398L35.9262 3.46342L36.2226 3.52956C36.2497 4.04487 36.2826 4.56016 36.3021 5.07591C36.3663 6.77171 36.5076 8.47081 36.4496 10.1628V10.1624C36.3016 10.9474 36.0708 11.7149 35.7611 12.451C35.4171 13.7537 35.1092 15.0661 34.8037 16.3783C34.1504 19.1861 33.5123 21.9972 32.8596 24.8055C32.4294 26.6558 31.9831 28.5026 31.5477 30.3515C31.5077 30.5223 31.4968 30.6998 31.4716 30.8773C33.1711 30.9829 34.7252 30.3191 34.985 29.2152C35.2776 27.9724 34.2789 27.4889 33.1698 27.0869C34.6073 26.6734 36.2355 27.586 36.3191 28.9187C36.3962 30.1411 36.6022 31.3629 35.5022 32.5662C34.66 33.4874 34.4949 35.0748 34.1543 36.398C33.4548 39.1214 32.8216 41.8626 32.1921 44.6038C31.8266 46.1963 31.4579 47.7932 31.2067 49.4062C30.7456 52.3628 30.3526 55.3305 29.9753 58.2991V58.2996C29.9567 58.8634 29.9943 59.4277 30.0866 59.9839L29.7184 60.0986C29.4762 59.392 29.234 58.6859 28.9923 57.9807C28.4189 58.4228 27.8108 58.8172 27.1732 59.1607C26.8939 59.2911 26.4281 59.0209 26.0965 59.0551C25.3989 59.0903 24.7042 59.1664 24.0157 59.2835C23.7093 59.4343 23.4376 59.647 23.2178 59.9082L23.3139 60.316L29.2363 59.7231L29.3082 59.9496V59.9501C28.7215 60.237 28.1129 60.4768 27.4877 60.6667C24.188 61.4032 20.8293 61.2167 17.4933 61.1273C14.9434 61.0587 12.4016 60.7209 9.85366 60.5325V60.532C9.55294 60.5601 9.25461 60.4554 9.03669 60.2461C8.81877 60.0362 8.70267 59.7422 8.71885 59.4405C8.29252 56.9339 7.66397 54.4616 7.12256 51.9745C6.87562 50.8393 6.67102 49.6944 6.40741 48.5634C5.78934 45.9099 5.1941 43.2496 4.50137 40.615C3.82619 38.049 3.04918 35.5091 2.2908 32.9659L2.29128 32.9654C2.22181 32.688 2.03767 32.4534 1.78453 32.3207C0.721567 32.0828 0.731567 31.3043 0.678276 30.4678C0.494615 27.5987 1.24877 27.1305 4.15503 26.2245C3.78437 21.5635 4.01515 16.8421 2.92417 12.2276L2.92369 12.2281C2.86279 11.7975 2.91703 11.3583 3.08071 10.9558C3.60982 9.40326 4.20267 7.87214 4.73839 6.32189C4.96868 5.65575 5.35409 5.44211 5.84038 5.97217C6.39136 6.59786 6.88717 7.27015 7.32204 7.982C7.68604 8.57296 8.01006 9.18817 8.29174 9.82288C8.65145 10.5984 9.11966 11.2027 8.61815 12.299C8.18659 13.2425 8.61672 14.5762 8.65193 15.7376C8.74091 18.6867 8.82037 21.6363 8.91172 24.5858C8.97167 24.819 9.05542 25.045 9.162 25.2605C9.83147 22.2915 10.4438 19.6117 11.0381 16.9277C11.5439 14.6438 11.8384 12.2905 12.5936 10.0937C13.047 8.77473 14.2132 7.70416 15.0397 6.50887C15.457 5.90507 15.8319 5.2713 16.2259 4.6513L16.5242 4.69841V4.69793C16.7193 5.21466 16.863 5.749 16.9534 6.29337C17.2104 9.6745 16.8506 13.0737 15.8909 16.3258C15.1858 18.702 14.6733 21.14 14.168 23.5701C13.665 25.9886 13.2787 28.4309 12.8423 30.8643C12.6201 31.0284 12.397 31.1912 12.1733 31.3529L11.807 31.1483C13.2911 24.7715 14.7755 18.3914 16.261 12.0075C14.677 11.7843 14.667 11.8824 14.2192 13.6981C13.5921 16.2403 13.0782 18.8107 12.5159 21.3691C11.8507 24.3939 11.2007 27.4219 10.5103 30.441C10.3214 31.267 10.7301 31.5082 11.4101 31.5563C12.0134 31.5991 12.8146 31.9855 12.8241 30.8393L12.8242 30.8388ZM17.8597 59.1079L18.3893 58.1839C16.4703 57.6476 14.5319 57.9954 14.3868 59.0284L16.3899 58.2224C16.35 58.7301 16.3181 59.1369 16.2743 59.6956C16.8838 59.4648 17.3796 59.2768 17.8721 59.0927C17.5495 59.4491 17.2264 59.8055 16.763 60.3175L20.9306 60.4498L20.6289 59.3635C19.6193 59.4781 18.61 60.4701 17.8597 59.1079ZM3.33293 32.7475C3.28202 32.9569 3.25299 33.1715 3.24776 33.3875C4.94161 40.37 6.62743 47.3551 8.35418 54.3286C8.61921 55.3987 8.96798 56.289 10.4087 56.6058C14.6287 57.5341 18.8629 57.4057 23.1108 57.1863H23.1113C24.445 57.0888 25.7706 56.9013 27.079 56.6249C27.8123 56.4426 28.5332 56.2133 29.2369 55.9392C29.9825 52.4477 30.7185 48.9101 31.4984 45.3819C31.9865 43.1713 32.5366 40.9739 33.0657 38.7724C33.4334 37.2422 33.8626 35.7247 34.1714 34.1831C34.4089 32.9974 34.2614 32.8889 33.0618 33.1354C32.1645 33.4204 31.2467 33.6336 30.3159 33.7739C25.8215 33.9543 21.3221 34.0119 16.8269 34.1731C13.738 34.2521 10.65 33.9804 7.62243 33.3624C6.2136 33.0912 4.77993 32.9503 3.33346 32.7471L3.33293 32.7475ZM29.7603 11.0438L29.4291 11.1409C27.3546 17.8622 26.512 24.8138 25.4362 31.7191C27.3451 32.0997 27.8266 31.7833 28.1159 30.0941C28.1592 29.8424 28.2401 29.5969 28.2953 29.3471C28.8582 26.7802 29.4382 24.2165 29.9744 21.6438C30.4222 19.4974 30.848 17.3458 31.2258 15.186C31.4465 13.9242 31.5546 12.6418 31.713 11.369L31.2805 11.2073C31.0359 11.3862 30.8332 11.6155 30.6852 11.8801C29.9791 14.7488 29.2797 17.6198 28.6492 20.5055C28.2438 22.3611 27.9179 24.2368 27.6272 26.1144C27.4383 27.3358 27.3931 28.579 27.2508 29.8086H27.2513C27.1809 30.1873 27.0819 30.5604 26.9558 30.9248L26.5795 30.8772V30.8768C26.55 30.5894 26.5409 30.3001 26.5533 30.0113C26.6489 29.1372 26.7374 28.2593 26.8945 27.3948C27.5216 23.941 28.1544 20.488 28.8254 17.0422C29.1532 15.3578 29.5881 13.6949 29.9283 12.0124L29.9278 12.0128C29.9297 11.6822 29.8731 11.3543 29.7603 11.0436L29.7603 11.0438ZM32.9288 10.7831L32.63 10.9153C31.3367 17.7228 30.044 24.5298 28.7249 31.4704L30.5663 31.2382C32.1541 24.6563 33.7161 18.1816 35.2754 11.721C34.4351 11.4093 34.0835 11.5506 33.9379 12.3738C33.5059 14.8137 33.0115 17.2436 32.4895 19.6665C31.7054 23.305 30.8784 26.934 30.0586 30.565V30.5655C29.9939 30.6835 29.904 30.7853 29.795 30.8643L29.5048 30.8253C29.4891 30.4551 29.4995 30.084 29.5357 29.7147C29.6294 29.1399 29.7879 28.5761 29.9159 28.007C30.5577 25.1597 31.2253 22.3172 31.8329 19.4624C32.3653 16.9616 32.854 14.4516 33.2993 11.9328L33.2998 11.9332C33.2608 11.5274 33.1342 11.1353 32.9287 10.7837L32.9288 10.7831ZM21.8276 20.0414C20.0642 21.9252 16.6964 29.5834 16.674 31.7602C18.2955 32.3216 18.4483 32.2764 19.1349 30.7819C20.3949 28.0398 21.6167 25.2806 22.8829 22.5419C23.6514 20.8798 23.6485 20.8279 21.8276 20.0414ZM29.1508 7.10058L28.8039 6.83937H28.8044C28.2805 7.28758 27.8195 7.80479 27.4331 8.37573C25.7792 11.714 24.2494 15.1136 22.5688 18.4376C22.0854 19.394 22.7644 19.4906 23.2245 19.806C23.8359 20.2252 24.0919 19.8522 24.3526 19.3098C25.5964 16.7246 26.903 14.1696 28.132 11.5774L28.1324 11.5784C28.8423 10.1948 29.1925 8.65498 29.1507 7.10047L29.1508 7.10058ZM18.0992 14.8725C16.9691 20.5361 15.508 26.1283 13.7221 31.6199C15.1315 32.0429 15.7662 31.8473 15.9828 30.7772C16.2792 29.3103 16.489 27.8234 16.8411 26.3702C17.3474 24.2809 17.975 22.2215 18.4993 20.1361C18.9047 18.5231 19.2316 16.8901 19.5894 15.2818L18.0992 14.8725ZM9.2691 31.0413L9.69543 31.0455C10.157 28.8754 10.5995 26.7009 11.0877 24.5369C11.327 23.4768 11.6829 22.4429 11.9313 21.3841C12.3614 19.548 12.7526 17.7023 13.1532 15.8591C13.3858 14.7885 13.6413 13.7207 13.8155 12.6397C13.913 12.0335 13.9549 11.3622 13.0471 11.1123H13.0475C12.7216 11.9526 12.4433 12.8105 12.2134 13.6817C11.2361 18.3389 10.2702 22.9991 9.3842 27.675C9.25668 28.7927 9.21861 29.918 9.26905 31.0419L9.2691 31.0413ZM17.3541 26.7518C20.2361 21.3094 22.9577 16.1712 25.7174 10.9607L24.4918 10.4863C24.1297 11.2566 23.7733 11.9604 23.4645 12.6845C22.8374 14.1534 22.3016 15.6646 21.6032 17.0976C21.0379 18.2586 20.7738 18.242 19.7865 17.1985C18.9871 20.3393 18.2097 23.3927 17.3546 26.7519L17.3541 26.7518ZM8.42071 30.2605L8.17281 30.5193H8.17329C7.8916 30.3999 7.64704 30.2072 7.4648 29.9612C7.32016 28.8416 7.2602 27.7125 7.28589 26.5838C7.44434 22.5766 7.2031 18.563 6.56598 14.603C6.4613 14.2018 6.31475 13.8126 6.12919 13.442L5.81801 13.5281C5.75473 13.7998 5.71809 14.0767 5.70905 14.3555C6.01405 19.3302 6.32713 24.3043 6.64782 29.2782C6.75631 30.9683 6.76345 30.9678 8.43876 31.0939L8.42071 30.2605ZM5.93267 30.4951C5.86463 28.8944 5.82133 27.319 5.72569 25.747C5.49254 21.9034 5.23322 18.0612 4.98818 14.2181C4.93014 13.3089 4.92443 13.2941 4.00326 13.0729C4.20738 16.0038 4.47241 18.9663 4.60801 21.9349C4.86161 27.4657 5.20991 30.0131 5.93316 30.4951L5.93267 30.4951ZM23.1295 24.1069L22.6741 23.9341C21.6055 26.6111 20.5372 29.2875 19.423 32.0786L22.0081 32.09L23.1295 24.1069ZM24.9461 20.0239L24.4632 19.9377C24.3038 20.9931 24.1372 22.0474 23.9869 23.1038C23.659 25.4071 23.336 27.711 23.0177 30.0159H23.0181C22.9292 30.3318 22.8911 30.6601 22.9058 30.9879C23.021 31.3262 23.1818 31.6474 23.3836 31.9424C23.6495 31.6665 23.9317 31.4033 24.1715 31.1064C24.2286 30.9713 24.2495 30.8238 24.2329 30.6787C24.4113 28.0665 24.5888 25.4537 24.7648 22.8416C24.8281 21.9023 24.8862 20.963 24.9466 20.0238L24.9461 20.0239ZM27.121 15.9333L26.8231 15.8353C26.4077 16.6537 25.7526 17.4365 25.6255 18.2972C25.3391 20.2323 25.2958 22.205 25.1902 24.1639C25.1307 25.2611 25.1445 26.3622 25.1254 27.4617L25.4971 27.4936L27.121 15.9333ZM7.10799 9.53939C6.52751 10.5762 6.08071 10.6723 4.13174 10.2089C3.86386 10.8003 3.5108 11.3732 4.24118 11.9256C5.22468 12.6698 6.6202 12.8054 7.2854 12.252C8.40974 11.317 7.73178 10.4891 7.10799 9.53939ZM4.65332 30.1298C4.55435 29.3437 4.45539 28.6252 4.37497 27.9048C4.30883 27.3143 3.96054 26.9665 3.42049 27.1821L3.42097 27.1816C2.71534 27.5113 2.03212 27.8872 1.37643 28.3074C2.35469 29.8128 3.44338 30.3895 4.6533 30.1292L4.65332 30.1298ZM21.2606 58.1236C21.3339 58.4695 21.3553 58.6432 21.4085 58.8059C21.5346 59.1908 21.6764 59.5705 21.8116 59.9521V59.9517C22.2141 59.8275 22.6 59.6538 22.9597 59.4349C23.4607 59.0053 23.938 58.5485 24.3885 58.0661C24.5731 58.3083 24.8067 58.5081 25.0737 58.6537C25.4296 58.4662 25.7588 58.2335 26.0538 57.9604L25.883 57.7111L21.2606 58.1236ZM32.847 10.1241L34.9772 10.7774V10.7778C35.2299 10.2416 35.3859 9.66539 35.4378 9.07496C35.3959 8.60962 34.9039 8.18472 34.5233 7.60803C33.9157 8.52017 33.4785 9.17677 32.847 10.1241ZM14.3225 9.06444C14.0537 9.22526 13.8239 9.44461 13.6507 9.7063C13.4846 10.2287 14.3149 11.0819 14.9754 11.177C15.2518 11.285 15.5639 11.2503 15.8099 11.0842C16.0559 10.9182 16.2044 10.6417 16.2072 10.3448C16.5198 8.52343 15.1952 9.42466 14.3225 9.06444ZM25.2176 9.32708C24.4882 8.69188 24.118 9.21051 23.8902 9.6649C23.0104 11.4197 22.1786 13.1988 21.3564 14.9816C21.2075 15.3789 21.0909 15.7876 21.0077 16.2034L21.315 16.2991C21.7109 15.3741 22.0549 14.422 22.515 13.5299C23.2716 12.062 23.2458 10.1031 25.2176 9.32708ZM7.92581 12.8476C7.52137 13.0303 7.21161 13.1702 6.9523 13.2872C7.28964 15.327 7.61558 17.2969 7.94151 19.2663L8.10423 19.252C8.0457 17.1623 7.98766 15.0725 7.92581 12.8476ZM13.567 59.0358C12.6905 59.4907 11.8479 60.2087 11.1403 58.8588C10.8486 59.1372 10.6293 59.346 10.4547 59.5126L15.8319 60.2686L15.3932 59.0886C14.678 59.5878 14.037 59.9479 13.567 59.0358ZM18.5144 9.68666L19.221 4.65783C17.8944 6.28177 17.6994 8.38819 18.5144 9.68666ZM30.0633 10.5869L31.987 10.4375C31.9065 9.84414 31.8499 9.42638 31.7943 9.01671L30.491 8.92679C30.3707 9.39355 30.255 9.84223 30.0633 10.5869ZM20.5113 32.8131L20.5237 33.1077C22.2195 32.7541 23.9843 34.0531 25.6521 32.5757L20.5113 32.8131ZM19.3451 10.6697L19.7515 10.6945L20.0879 5.84883L19.6311 5.82123C19.5359 7.43762 19.4403 9.05389 19.3446 10.6698L19.3451 10.6697ZM21.9502 6.66285L21.4292 10.3695C22.4912 8.98585 22.546 8.51092 21.9498 6.66285H21.9502ZM11.8959 57.7502L11.6365 57.9653C11.854 58.3117 12.1138 58.9688 12.2808 58.9459V58.9464C12.7709 58.8079 13.2353 58.5924 13.6569 58.3078L13.5393 57.9814L11.8959 57.7502ZM18.769 57.9838L18.5853 58.2822V58.2826C18.7019 58.5729 18.8832 58.8327 19.1154 59.042C19.7116 58.9355 20.2973 58.7794 20.8668 58.5753L20.8078 58.2712L18.769 57.9838ZM21.1033 5.22893L20.7569 5.21609C20.6908 6.46364 20.6246 7.7112 20.558 8.95838L20.9206 8.97218C20.9815 7.72463 21.0424 6.47707 21.1033 5.2294V5.22893ZM8.24772 28.7695L8.61743 28.7576L8.33432 25.7533L8.02648 25.7833C8.09976 26.7787 8.17349 27.7741 8.24772 28.7695ZM14.271 33.6018L14.3181 33.2626L11.1483 33.0075L11.124 33.3349L14.271 33.6018Z" fill="#F5F5F5"/>
<path d="M29.2693 39.6053C28.4418 42.1695 27.2675 44.4909 27.3788 47.4609C26.8512 47.5018 26.0294 47.6032 25.2058 47.6213C23.6075 47.6555 22.0073 47.6203 20.4086 47.6546C17.0632 47.7259 13.7187 47.8339 10.3733 47.9015C9.67096 47.9158 8.90352 47.6836 8.95347 46.8618C9.08907 44.6364 8.23405 42.6362 7.70348 40.5631C7.52553 39.8674 7.66303 39.4682 8.41244 39.4639C9.71712 39.4568 11.0223 39.5106 12.327 39.5039C16.112 39.4849 19.8967 39.4282 23.6813 39.4292C24.955 39.4297 26.2288 39.5677 27.5035 39.6224C28.0345 39.6452 28.5675 39.6138 29.2693 39.6053ZM28.0997 40.1049L8.27066 39.994C8.79453 41.8401 9.26701 43.4832 9.72285 45.1309C9.83514 45.3926 9.86702 45.6819 9.81468 45.9617C9.39645 46.9176 9.92555 47.1869 10.6987 47.2174C12.1889 47.2759 13.6825 47.3268 15.1724 47.2888C17.8012 47.2212 20.4281 47.0746 23.0566 46.9814C24.2752 46.9381 25.4956 46.9419 26.5971 46.9262C26.2554 44.4586 27.916 42.6105 28.0992 40.105L28.0997 40.1049Z" fill="#F5F5F5"/>
</svg>
