<svg width="38" height="60" viewBox="0 0 38 60" fill="none" xmlns="http://www.w3.org/2000/svg">
<path d="M37.056 0.00295674C36.9561 0.667186 36.7996 1.3214 36.5878 1.95907C35.238 4.98477 34.9567 8.37967 35.7899 11.5866C35.8161 11.904 35.7347 12.2209 35.5596 12.4869C31.9782 18.9641 28.3677 25.424 24.8001 31.9091C23.602 34.0869 22.5895 36.3693 21.3419 38.5162C20.0924 40.6658 18.6054 42.6766 17.3127 44.8025C15.9496 47.0445 14.7505 49.3865 13.3706 51.6171C12.3929 53.1981 11.1234 54.6033 10.1909 56.2073C9.47047 57.4458 8.92186 58.75 7.50207 59.3514H7.5016C7.26369 59.496 6.98963 59.5688 6.71127 59.5612C5.33667 59.2281 3.98107 58.8209 2.65069 58.3412C1.0315 57.7117 0.231225 55.2099 1.05245 53.6982C1.49115 52.8908 1.91082 52.0728 2.34946 51.2654C2.78721 50.4598 3.23733 49.6609 3.72978 48.7736C2.40756 47.9314 3.33962 47.044 3.76452 46.2413C6.4667 41.1306 9.19738 36.0347 11.9571 30.9544C12.5875 29.793 13.4026 28.7329 14.0507 27.5795C14.8367 26.1812 15.5162 24.7237 16.2747 23.3091C19.1666 17.9153 22.0458 12.5143 25.0077 7.15858H25.0072C25.434 6.52861 26.0535 6.0547 26.7729 5.80774C30.3482 4.45884 33.7588 2.86535 36.4661 0.0628007C36.6588 0.0137926 36.8577 -0.00666744 37.0561 0.00189685L37.056 0.00295674ZM9.76869 43.1899C10.324 43.4863 10.5395 43.6114 10.7636 43.7185C12.3718 44.486 12.4617 44.4198 13.2992 42.8225C15.1558 39.2834 17.0191 35.7472 18.9423 32.2443C22.3291 26.0758 25.7663 19.9356 29.1722 13.777C29.6494 12.9139 30.07 12.0193 30.5049 11.1624L28.005 9.19874C21.8946 20.5887 15.8552 31.8452 9.76918 43.1892L9.76869 43.1899ZM34.7429 11.9961C34.0658 11.7987 33.3678 11.6821 32.6637 11.6488C32.1341 11.6807 31.6411 11.929 31.3009 12.3363C27.9545 18.1536 24.63 23.9842 21.3798 29.8559C18.9217 34.2952 16.5484 38.7826 14.1969 43.2804C13.3699 44.8614 13.4508 44.9038 15.2018 46.0757C16.5636 44.0226 17.9701 41.9952 19.2799 39.9073C22.0134 35.5512 24.1303 30.8535 26.9486 26.5218C29.7321 22.2428 31.9147 17.5722 34.3503 13.0682C34.5064 12.7208 34.6373 12.363 34.7429 11.9976L34.7429 11.9961ZM8.73089 42.6308C9.57117 41.3138 10.4891 40.0643 11.2099 38.7105C13.4543 34.4977 15.5917 30.2272 17.837 26.0145C19.0508 23.7368 20.4673 21.5671 21.6711 19.2841C23.3984 16.0096 24.9742 12.6551 26.7057 9.383C27.1568 8.53082 27.1577 7.94323 26.2855 7.13431C19.8325 18.8693 13.1912 30.3984 7.26893 42.461C8.00501 42.5471 8.36662 42.589 8.73111 42.6313L8.73089 42.6308ZM11.7875 51.1516C11.9274 51.0888 12.0578 51.0069 12.1753 50.9084C12.6369 50.1219 13.097 49.3339 13.5432 48.5384C14.3264 47.1424 14.0552 46.304 12.5293 45.6697C11.147 45.0954 9.74767 44.5454 8.31886 44.1052C7.47667 43.8459 6.56069 43.7484 6.23766 44.9955L6.23718 44.995C6.02544 45.2691 5.77755 45.5136 5.50015 45.7216C5.08857 46.1584 4.78929 46.6884 4.62751 47.2666C4.81545 47.7471 5.22798 48.104 5.73044 48.2206C8.00909 48.5313 10.1297 49.5577 11.7875 51.1516ZM27.7943 6.61504C28.4361 8.14482 29.689 9.33671 31.2491 9.90141C31.8044 10.0422 32.343 10.2421 32.8555 10.4976C33.6963 11.0591 34.5042 10.4524 34.4619 9.41846C34.4871 8.91695 34.4624 8.41402 34.3882 7.91779C34.2816 7.5595 34.0541 7.24927 33.7444 7.04039C32.9146 6.50559 32.0324 6.05261 31.0322 5.4893L27.7943 6.61504ZM5.86037 49.3379L5.6986 49.7804C6.66592 50.8195 6.66163 50.8114 5.50542 51.4215V51.421C5.327 51.5295 5.1833 51.687 5.09195 51.8749C4.91209 52.227 4.78172 52.6039 4.63041 52.9707H4.63088C4.53762 53.035 4.4791 53.1387 4.47243 53.2514C4.46625 53.3647 4.5124 53.4746 4.59757 53.5488C5.41453 54.0194 6.30482 54.3487 7.23117 54.5233C7.87495 54.5709 8.5663 53.9761 9.31664 53.6307C9.57786 53.0592 9.93758 52.2731 10.4091 51.243C8.83462 50.5835 7.34728 49.9608 5.86037 49.3379ZM2.87754 54.3886C1.92068 54.6099 1.5753 55.03 1.96731 55.6918H1.96684C2.20379 56.1272 2.55733 56.4883 2.98793 56.7343C4.07326 57.2439 5.1885 57.6883 6.32716 58.0642C6.70305 58.1056 7.0837 58.0737 7.44769 57.971C7.32874 57.4738 7.37061 56.7092 7.06372 56.525C5.72335 55.7209 4.28212 55.0852 2.87707 54.3881L2.87754 54.3886Z" fill="#F5F5F5"/>
</svg>
